<?xml version="1.0" encoding="utf-8"?>
<svg viewBox="241.711 113.977 861.542 750.899" xmlns="http://www.w3.org/2000/svg">
  <defs>
    <clipPath id="clip0_0_1">
      <rect width="1440" height="1024" fill="white"/>
    </clipPath>
    <clipPath id="clip1_0_1">
      <rect width="333" height="298" fill="white" transform="translate(955 317)"/>
    </clipPath>
    <clipPath id="clip2_0_1">
      <rect width="289" height="290" fill="white" transform="translate(1121.73 95.7834) rotate(-13.1854)"/>
    </clipPath>
  </defs>
  <g clip-path="url(#clip0_0_1)" style="" transform="matrix(1.405927, 0, 0, 1.405927, -886.724256, 0.230193)">
    <mask id="mask0_0_1" style="mask-type:luminance" maskUnits="userSpaceOnUse" x="793" y="97" width="360" height="236">
      <path d="M1140.99 97.1264L793.187 105.276L804.674 332.783L1152.48 324.633L1140.99 97.1264Z" fill="white"/>
    </mask>
    <g mask="url(#mask0_0_1)">
      <path d="M967.254 139.919C973.08 139.783 977.566 134.953 977.272 129.131C976.978 123.309 972.016 118.701 966.189 118.837C960.362 118.974 955.876 123.804 956.17 129.626C956.464 135.447 961.426 140.056 967.254 139.919Z" fill="#FD6584"/>
      <path d="M990.083 123.834C989.736 122.866 989.116 122.013 988.299 121.38C987.482 120.746 986.504 120.36 985.484 120.269C985.46 120.268 985.436 120.269 985.413 120.271C985.384 120.263 985.354 120.257 985.325 120.253C981.769 119.878 977.897 121.084 975.376 123.57C974.44 124.478 973.709 125.578 973.233 126.798C972.709 126.14 972.036 125.616 971.272 125.271C970.508 124.925 969.676 124.768 968.848 124.813C967.782 124.909 966.781 125.332 965.98 126.023C965.179 126.714 964.619 127.641 964.374 128.677C964.348 128.804 964.364 128.936 964.419 129.055C964.474 129.174 964.566 129.274 964.681 129.338C965.012 129.602 965.4 129.785 965.811 129.873C966.694 130.038 967.584 130.187 968.473 130.32C970.211 130.58 971.955 130.783 973.706 130.929C974.862 131.024 976.019 131.095 977.179 131.14C979.573 131.234 981.973 131.213 984.36 131.082C985.544 131.015 986.68 130.949 987.736 130.402C988.506 129.996 989.15 129.394 989.606 128.655C990.035 127.945 990.3 127.145 990.382 126.312C990.464 125.479 990.363 124.633 990.083 123.834Z"/>
      <path d="M969.152 139.7C969.11 139.258 969.014 138.823 968.865 138.402C968.517 137.434 967.896 136.582 967.078 135.948C966.261 135.316 965.282 134.929 964.262 134.838C964.24 134.837 964.217 134.837 964.195 134.84C964.165 134.832 964.134 134.826 964.103 134.822C962.135 134.629 960.162 134.878 958.328 135.554C955.508 136.58 953.088 138.574 952.015 141.366C951.49 140.708 950.817 140.184 950.052 139.838C949.287 139.492 948.455 139.336 947.626 139.382C946.56 139.478 945.559 139.9 944.758 140.591C943.957 141.283 943.397 142.209 943.153 143.246C943.128 143.372 943.145 143.504 943.2 143.623C943.255 143.741 943.346 143.84 943.459 143.907C943.791 144.17 944.179 144.353 944.59 144.441C945.476 144.606 946.362 144.755 947.255 144.888C948.993 145.148 950.736 145.351 952.485 145.497C956.036 145.793 959.597 145.845 963.142 145.651C964.322 145.584 965.462 145.517 966.518 144.971C967.287 144.565 967.93 143.963 968.385 143.223C969.025 142.176 969.295 140.937 969.152 139.7Z"/>
      <path d="M1113.03 264.387C1113.54 271.57 1112.91 278.759 1111.16 285.685C1111.1 285.936 1111.02 286.188 1110.95 286.44L1067.65 287.454C1068.12 284.395 1068.95 281.413 1070.14 278.571C1073.35 270.847 1078.9 264.172 1084.38 257.542C1091.93 248.408 1099.29 239.351 1099.94 227.687C1103.36 232.442 1106.15 237.603 1108.25 243.039C1106.06 243.919 1104.07 245.225 1102.4 246.883C1101.93 247.35 1101.45 248.022 1101.74 248.648C1102 249.172 1102.65 249.333 1103.23 249.437C1104.63 249.669 1106.02 249.901 1107.42 250.119C1108.52 250.313 1109.63 250.494 1110.74 250.673C1111.94 255.173 1112.71 259.765 1113.03 264.387Z" fill="#005AA9"/>
      <path d="M1149.15 258.775C1142.42 263.154 1138.34 269.78 1135.11 277.166C1132.01 277.954 1129.19 279.541 1126.93 281.77C1126.46 282.238 1125.98 282.911 1126.27 283.536C1126.52 284.06 1127.19 284.221 1127.77 284.325C1129.15 284.557 1130.56 284.789 1131.94 285.006C1131.82 285.318 1131.71 285.645 1131.59 285.956L1085.71 287.031C1087.65 284.176 1089.83 281.489 1092.21 278.995C1092.73 278.439 1093.26 277.912 1093.81 277.369C1099.39 271.952 1105.89 267.56 1113.03 264.387C1124.27 259.323 1136.74 257.385 1149.15 258.775Z" fill="#005AA9"/>
      <path d="M1093.36 286.852L1052.51 287.809C1052.12 284.546 1051.97 281.266 1052.07 277.994C1052.68 257.785 1062.7 238.311 1078.68 226.287C1076.95 233.874 1078.41 241.341 1081 248.811C1080.7 248.921 1080.39 249.017 1080.12 249.14C1077.92 250.021 1075.93 251.327 1074.26 252.984C1073.8 253.451 1073.32 254.124 1073.6 254.75C1073.85 255.274 1074.52 255.434 1075.1 255.539C1076.49 255.771 1077.89 256.002 1079.27 256.22C1080.38 256.415 1081.5 256.595 1082.61 256.789C1083.13 256.865 1083.65 256.956 1084.17 257.047C1084.25 257.222 1084.3 257.382 1084.38 257.542C1087.33 264.606 1090.52 271.725 1092.21 278.995C1092.63 280.819 1092.95 282.664 1093.17 284.518C1093.25 285.296 1093.32 286.073 1093.36 286.852Z"/>
      <path d="M869.609 270.091C870.123 277.274 869.492 284.464 867.739 291.389C867.678 291.64 867.602 291.892 867.527 292.144L824.235 293.158C824.7 290.099 825.534 287.117 826.717 284.275C829.934 276.551 835.486 269.875 840.966 263.246C848.514 254.112 855.875 245.055 856.523 233.39C859.937 238.146 862.731 243.306 864.835 248.743C862.64 249.623 860.65 250.929 858.978 252.587C858.516 253.053 858.034 253.727 858.317 254.352C858.579 254.875 859.234 255.037 859.814 255.141C861.21 255.373 862.605 255.605 864 255.822C865.1 256.018 866.213 256.197 867.326 256.377C868.524 260.876 869.288 265.469 869.609 270.091Z" fill="#9DBE3B"/>
      <path d="M905.734 264.479C899.006 268.858 894.923 275.484 891.69 282.87C888.59 283.657 885.773 285.244 883.515 287.474C883.039 287.941 882.557 288.614 882.854 289.24C883.101 289.764 883.772 289.924 884.351 290.029C885.732 290.261 887.142 290.492 888.522 290.71C888.406 291.022 888.29 291.349 888.173 291.66L842.293 292.735C844.234 289.88 846.407 287.193 848.792 284.699C849.309 284.142 849.842 283.615 850.389 283.073C855.971 277.655 862.472 273.264 869.609 270.091C880.847 265.026 893.319 263.089 905.734 264.479Z"/>
      <path d="M849.94 292.556L809.089 293.513C808.701 290.25 808.555 286.97 808.653 283.698C809.266 263.489 819.281 244.015 835.266 231.991C833.529 239.577 834.995 247.044 837.581 254.515C837.277 254.625 836.973 254.72 836.7 254.844C834.504 255.725 832.514 257.03 830.843 258.688C830.38 259.155 829.899 259.828 830.181 260.454C830.428 260.978 831.099 261.138 831.678 261.242C833.074 261.474 834.47 261.707 835.85 261.925C836.964 262.119 838.077 262.299 839.191 262.493C839.71 262.569 840.23 262.66 840.75 262.751C840.832 262.925 840.885 263.086 840.966 263.246C843.914 270.31 847.1 277.428 848.792 284.699C849.213 286.524 849.532 288.367 849.748 290.222C849.832 290.999 849.9 291.777 849.94 292.556Z" fill="#9DBE3B"/>
      <path d="M1001.16 271.858L1037.82 274.239L1038.21 274.266L1030.36 118.664C1030.22 118.576 1030.09 118.488 1029.95 118.4C1022.08 113.263 1013.63 109.088 1004.79 105.97L1004.22 131.715L1004.17 134.072L1003.61 159.603L1003.44 167.456L1001.18 270.948L1001.16 271.858Z" fill="#9DBE3B"/>
      <path d="M903.052 118.745C902.8 118.917 902.547 119.089 902.295 119.269L910.273 277.264L911.051 277.175L946.995 273.127L946.882 272.22L934.185 169.079L933.221 161.252L930.088 135.808L929.8 133.459L926.482 106.552C918.195 109.671 910.33 113.764 903.052 118.745Z" fill="#9DBE3B"/>
      <path d="M902.295 119.269C901.787 119.621 901.279 119.981 900.779 120.344L908.813 279.456C909.013 283.432 911.54 286.709 914.737 287.484C915.259 287.61 915.794 287.669 916.328 287.656L1033.61 284.907C1034.14 284.896 1034.67 284.813 1035.18 284.661C1036.33 284.309 1037.36 283.648 1038.16 282.749C1039.67 281.002 1040.43 278.717 1040.28 276.375L1032.39 120.031C1031.72 119.568 1031.04 119.11 1030.36 118.664C1030.22 118.576 1030.09 118.488 1029.95 118.4L1037.93 276.431C1037.96 276.943 1037.92 277.454 1037.83 277.955C1037.39 280.317 1035.64 282.081 1033.47 282.132L916.188 284.88C913.572 284.941 911.32 282.484 911.164 279.401L903.052 118.745C902.8 118.917 902.547 119.089 902.295 119.269Z"/>
      <path d="M1031.77 131.071L902.649 134.097L902.768 136.449L1031.89 133.423L1031.77 131.071Z"/>
      <path d="M990.708 101.988C989.916 101.813 989.124 101.649 988.325 101.498L991.551 165.379L993.905 165.324L990.708 101.988Z"/>
      <path d="M942.968 101.767C942.189 101.931 941.41 102.099 940.636 102.28L943.878 166.496L946.234 166.441L942.968 101.767Z"/>
      <path d="M884.886 284.269C884.954 285.619 885.28 286.951 885.848 288.192C886.067 288.673 886.321 289.137 886.611 289.581C886.984 290.16 887.412 290.703 887.888 291.203C888.937 292.31 890.205 293.187 891.608 293.775C893.01 294.364 894.514 294.649 896.019 294.614L1050.65 290.99C1053.46 290.924 1056.1 289.746 1057.99 287.713C1059.87 285.681 1060.85 282.962 1060.71 280.153C1060.57 277.345 1059.32 274.678 1057.23 272.739C1055.14 270.8 1052.39 269.748 1049.58 269.814L894.95 273.437C892.141 273.506 889.504 274.685 887.618 276.716C885.73 278.746 884.748 281.463 884.886 284.269Z"/>
      <path d="M904.451 169.777L1032.78 166.77L1032.39 158.928L904.054 161.935L904.451 169.777Z"/>
      <path d="M973.815 162.263L962.826 162.521C962.769 161.377 963.168 160.269 963.937 159.441C964.706 158.613 965.781 158.133 966.926 158.107L969.281 158.051C969.848 158.038 970.415 158.136 970.949 158.341C971.484 158.545 971.976 158.852 972.397 159.243C972.818 159.634 973.16 160.102 973.404 160.62C973.646 161.139 973.787 161.697 973.815 162.263Z"/>
      <path d="M802.627 292.252C806.265 296.236 810.171 299.968 814.316 303.422L1133.04 295.953C1136.83 292.313 1140.35 288.408 1143.58 284.264L802.627 292.252Z" fill="#3F3D56"/>
      <path d="M957.453 250.36L959.498 290.849L987.89 290.184L985.846 249.695C985.831 249.403 985.724 249.122 985.539 248.891C985.354 248.661 985.102 248.493 984.819 248.414C984.686 248.374 984.547 248.356 984.409 248.36L958.755 248.962C958.576 248.965 958.399 249.005 958.237 249.078C958.074 249.149 957.928 249.254 957.807 249.384C957.686 249.513 957.592 249.666 957.531 249.834C957.471 250.001 957.444 250.18 957.453 250.36ZM969.236 264.013C969.203 263.214 969.487 262.444 970.026 261.869C970.566 261.293 971.317 260.961 972.115 260.942C972.914 260.923 973.697 261.22 974.293 261.769C974.889 262.317 975.25 263.073 975.298 263.871L975.535 268.569C975.571 269.369 975.289 270.143 974.749 270.721C974.21 271.299 973.457 271.634 972.656 271.652C971.855 271.671 971.071 271.372 970.474 270.821C969.878 270.27 969.518 269.511 969.473 268.71L969.236 264.013Z" fill="#2F2E41"/>
      <path d="M959.345 289.557L959.542 293.461C959.553 293.663 959.644 293.855 959.794 293.995C959.943 294.135 960.141 294.212 960.344 294.209L987.384 293.576C987.587 293.57 987.777 293.484 987.913 293.337C988.048 293.19 988.119 292.994 988.109 292.792L987.912 288.888L959.345 289.557Z" fill="#3F3D56"/>
      <path d="M909.709 190.404L913.441 264.332C913.489 265.274 913.91 266.169 914.61 266.819C915.311 267.47 916.234 267.823 917.177 267.802L1026.83 265.233C1027.78 265.21 1028.66 264.814 1029.3 264.132C1029.93 263.45 1030.26 262.538 1030.21 261.596L1026.48 187.668C1026.43 186.726 1026.01 185.833 1025.31 185.183C1024.61 184.534 1023.68 184.18 1022.74 184.202L913.086 186.771C912.144 186.794 911.259 187.19 910.626 187.871C909.993 188.551 909.663 189.462 909.709 190.404Z" fill="#3F3D56"/>
      <path d="M912.328 191.263L915.967 263.359C915.994 263.863 916.218 264.341 916.593 264.688C916.967 265.036 917.46 265.225 917.964 265.214L1025.79 262.687C1026.29 262.674 1026.77 262.463 1027.11 262.099C1027.44 261.735 1027.62 261.247 1027.6 260.744L1023.96 188.648C1023.93 188.143 1023.71 187.665 1023.33 187.316C1022.96 186.968 1022.46 186.778 1021.96 186.789L914.132 189.315C913.628 189.329 913.155 189.541 912.816 189.906C912.478 190.271 912.302 190.759 912.328 191.263Z" fill="#005AA9"/>
      <path d="M939.609 295.616C939.726 295.751 939.871 295.858 940.033 295.93C940.196 296.003 940.372 296.038 940.548 296.033L1004.7 294.53C1004.87 294.525 1005.04 294.482 1005.2 294.403C1005.35 294.324 1005.49 294.211 1005.59 294.071C1005.69 293.933 1005.77 293.772 1005.8 293.601C1005.83 293.43 1005.82 293.252 1005.78 293.081L1004.55 288.379C1004.49 288.187 1004.4 288.01 1004.26 287.863C1004.12 287.717 1003.96 287.605 1003.77 287.539C1003.63 287.49 1003.49 287.467 1003.34 287.47L941.182 288.927C941.039 288.93 940.898 288.96 940.767 289.015C940.586 289.09 940.428 289.209 940.308 289.362C940.187 289.514 940.107 289.696 940.076 289.889L939.318 294.639C939.291 294.811 939.304 294.988 939.354 295.157C939.404 295.326 939.491 295.483 939.609 295.616Z" fill="#2F2E41"/>
      <path d="M1001.21 289.558L1002.8 289.521C1002.91 289.518 1002.99 289.43 1002.98 289.324L1002.94 288.525C1002.94 288.419 1002.85 288.334 1002.74 288.336L1001.15 288.374C1001.04 288.376 1000.96 288.464 1000.97 288.571L1001.01 289.37C1001.01 289.477 1001.1 289.56 1001.21 289.558Z" fill="#3F3D56"/>
      <path d="M997.257 289.651L998.847 289.614C998.954 289.611 999.036 289.523 999.03 289.417L998.99 288.617C998.985 288.511 998.894 288.427 998.787 288.429L997.198 288.466C997.091 288.469 997.009 288.557 997.015 288.664L997.055 289.462C997.06 289.569 997.151 289.653 997.257 289.651Z" fill="#3F3D56"/>
      <path d="M993.306 289.744L994.896 289.706C995.002 289.704 995.084 289.615 995.079 289.509L995.038 288.71C995.033 288.603 994.942 288.519 994.836 288.522L993.246 288.559C993.139 288.561 993.057 288.65 993.063 288.756L993.103 289.555C993.108 289.661 993.199 289.746 993.306 289.744Z" fill="#3F3D56"/>
      <path d="M989.354 289.836L990.944 289.799C991.051 289.796 991.133 289.708 991.127 289.601L991.087 288.803C991.082 288.696 990.991 288.612 990.884 288.615L989.294 288.652C989.188 288.654 989.106 288.742 989.111 288.849L989.152 289.648C989.157 289.754 989.248 289.839 989.354 289.836Z" fill="#3F3D56"/>
      <path d="M985.403 289.928L986.992 289.891C987.099 289.889 987.181 289.801 987.175 289.694L987.135 288.895C987.13 288.789 987.039 288.704 986.932 288.707L985.343 288.744C985.236 288.747 985.154 288.835 985.159 288.941L985.2 289.74C985.205 289.847 985.296 289.931 985.403 289.928Z" fill="#3F3D56"/>
      <path d="M981.451 290.021L983.041 289.984C983.147 289.982 983.23 289.893 983.224 289.787L983.184 288.988C983.178 288.881 983.088 288.797 982.981 288.799L981.391 288.837C981.285 288.839 981.202 288.928 981.207 289.034L981.248 289.833C981.253 289.939 981.344 290.024 981.451 290.021Z" fill="#3F3D56"/>
      <path d="M977.5 290.114L979.089 290.077C979.196 290.074 979.278 289.986 979.272 289.879L979.232 289.081C979.227 288.974 979.136 288.89 979.029 288.892L977.44 288.93C977.333 288.932 977.251 289.02 977.256 289.127L977.297 289.926C977.302 290.032 977.393 290.117 977.5 290.114Z" fill="#3F3D56"/>
      <path d="M973.548 290.206L975.137 290.169C975.244 290.166 975.326 290.079 975.321 289.972L975.28 289.173C975.275 289.067 975.184 288.982 975.078 288.985L973.488 289.022C973.381 289.025 973.299 289.112 973.304 289.219L973.345 290.018C973.35 290.125 973.441 290.209 973.548 290.206Z" fill="#3F3D56"/>
      <path d="M969.596 290.299L971.186 290.262C971.293 290.259 971.375 290.171 971.369 290.065L971.329 289.265C971.324 289.159 971.233 289.075 971.126 289.077L969.537 289.114C969.43 289.117 969.348 289.205 969.353 289.312L969.394 290.11C969.399 290.217 969.49 290.301 969.596 290.299Z" fill="#3F3D56"/>
      <path d="M965.645 290.392L967.234 290.354C967.341 290.352 967.423 290.263 967.417 290.157L967.377 289.358C967.372 289.252 967.281 289.167 967.174 289.17L965.585 289.207C965.478 289.209 965.396 289.298 965.401 289.404L965.442 290.203C965.447 290.31 965.538 290.394 965.645 290.392Z" fill="#3F3D56"/>
      <path d="M961.693 290.484L963.283 290.447C963.389 290.444 963.472 290.356 963.466 290.249L963.426 289.451C963.421 289.344 963.33 289.26 963.223 289.263L961.633 289.3C961.527 289.302 961.444 289.391 961.45 289.497L961.49 290.296C961.496 290.402 961.586 290.487 961.693 290.484Z" fill="#3F3D56"/>
      <path d="M957.742 290.576L959.331 290.539C959.438 290.537 959.52 290.449 959.514 290.342L959.474 289.543C959.469 289.437 959.378 289.353 959.271 289.355L957.682 289.393C957.575 289.395 957.493 289.483 957.498 289.59L957.539 290.389C957.544 290.495 957.635 290.579 957.742 290.576Z" fill="#3F3D56"/>
      <path d="M953.79 290.669L955.38 290.632C955.486 290.63 955.568 290.541 955.563 290.435L955.522 289.636C955.517 289.53 955.426 289.445 955.32 289.447L953.73 289.485C953.623 289.487 953.541 289.576 953.546 289.682L953.587 290.481C953.592 290.588 953.683 290.672 953.79 290.669Z" fill="#3F3D56"/>
      <path d="M949.838 290.762L951.428 290.725C951.535 290.722 951.617 290.634 951.611 290.528L951.571 289.729C951.566 289.622 951.475 289.538 951.368 289.54L949.779 289.577C949.672 289.58 949.59 289.669 949.595 289.775L949.636 290.574C949.641 290.68 949.732 290.765 949.838 290.762Z" fill="#3F3D56"/>
      <path d="M945.887 290.855L947.476 290.817C947.583 290.815 947.665 290.727 947.659 290.62L947.619 289.821C947.614 289.715 947.523 289.631 947.417 289.633L945.827 289.67C945.72 289.673 945.638 289.761 945.643 289.867L945.684 290.667C945.689 290.773 945.78 290.857 945.887 290.855Z" fill="#3F3D56"/>
      <path d="M941.935 290.947L943.525 290.91C943.631 290.907 943.714 290.819 943.708 290.713L943.668 289.913C943.663 289.807 943.572 289.723 943.465 289.726L941.875 289.763C941.769 289.766 941.686 289.853 941.692 289.96L941.732 290.759C941.738 290.865 941.828 290.949 941.935 290.947Z" fill="#3F3D56"/>
      <path d="M1001.36 291.531L1002.94 291.494C1003.05 291.492 1003.13 291.403 1003.13 291.296L1003.09 290.498C1003.08 290.391 1002.99 290.307 1002.89 290.309L1001.3 290.347C1001.19 290.349 1001.11 290.438 1001.11 290.544L1001.15 291.343C1001.16 291.449 1001.25 291.534 1001.36 291.531Z" fill="#3F3D56"/>
      <path d="M997.404 291.624L998.993 291.586C999.1 291.584 999.182 291.496 999.176 291.389L999.136 290.59C999.131 290.484 999.04 290.4 998.934 290.402L997.344 290.44C997.237 290.442 997.155 290.53 997.161 290.637L997.201 291.436C997.206 291.542 997.297 291.626 997.404 291.624Z" fill="#3F3D56"/>
      <path d="M993.452 291.716L995.042 291.679C995.149 291.676 995.231 291.588 995.225 291.482L995.185 290.682C995.18 290.577 995.089 290.492 994.982 290.495L993.392 290.532C993.286 290.534 993.203 290.622 993.209 290.729L993.249 291.528C993.254 291.635 993.345 291.718 993.452 291.716Z" fill="#3F3D56"/>
      <path d="M989.501 291.809L991.09 291.772C991.197 291.769 991.279 291.681 991.273 291.575L991.233 290.775C991.228 290.669 991.137 290.585 991.03 290.587L989.441 290.624C989.334 290.627 989.252 290.715 989.258 290.822L989.298 291.62C989.303 291.727 989.394 291.811 989.501 291.809Z" fill="#3F3D56"/>
      <path d="M985.549 291.902L987.139 291.864C987.245 291.862 987.327 291.773 987.322 291.667L987.281 290.868C987.276 290.761 987.186 290.677 987.079 290.68L985.489 290.717C985.382 290.719 985.3 290.808 985.306 290.914L985.346 291.713C985.351 291.819 985.442 291.904 985.549 291.902Z" fill="#3F3D56"/>
      <path d="M981.597 291.994L983.187 291.957C983.294 291.954 983.376 291.866 983.37 291.759L983.33 290.961C983.325 290.854 983.234 290.77 983.127 290.773L981.538 290.81C981.431 290.812 981.349 290.9 981.354 291.007L981.395 291.806C981.4 291.912 981.491 291.997 981.597 291.994Z" fill="#3F3D56"/>
      <path d="M977.646 292.086L979.235 292.049C979.342 292.047 979.424 291.958 979.418 291.852L979.378 291.053C979.373 290.947 979.282 290.862 979.176 290.865L977.586 290.902C977.479 290.905 977.397 290.993 977.403 291.1L977.443 291.898C977.448 292.005 977.539 292.089 977.646 292.086Z" fill="#3F3D56"/>
      <path d="M973.694 292.179L975.284 292.142C975.39 292.14 975.473 292.051 975.467 291.945L975.427 291.146C975.422 291.039 975.331 290.955 975.224 290.957L973.634 290.995C973.528 290.997 973.445 291.086 973.451 291.192L973.491 291.991C973.497 292.097 973.587 292.182 973.694 292.179Z" fill="#3F3D56"/>
      <path d="M969.743 292.272L971.332 292.235C971.439 292.232 971.521 292.144 971.515 292.037L971.475 291.239C971.47 291.132 971.379 291.048 971.272 291.05L969.683 291.087C969.576 291.09 969.494 291.178 969.5 291.285L969.54 292.084C969.545 292.19 969.636 292.275 969.743 292.272Z" fill="#3F3D56"/>
      <path d="M965.791 292.364L967.381 292.327C967.487 292.324 967.569 292.237 967.564 292.13L967.524 291.331C967.518 291.225 967.427 291.14 967.321 291.143L965.731 291.18C965.624 291.183 965.542 291.271 965.548 291.377L965.588 292.176C965.593 292.283 965.684 292.367 965.791 292.364Z" fill="#3F3D56"/>
      <path d="M961.839 292.457L963.429 292.42C963.536 292.417 963.618 292.329 963.612 292.223L963.572 291.423C963.567 291.317 963.476 291.233 963.369 291.235L961.78 291.272C961.673 291.275 961.591 291.363 961.597 291.47L961.637 292.268C961.642 292.375 961.733 292.459 961.839 292.457Z" fill="#3F3D56"/>
      <path d="M957.888 292.55L959.477 292.512C959.584 292.51 959.666 292.421 959.661 292.315L959.62 291.516C959.615 291.41 959.524 291.325 959.418 291.328L957.828 291.365C957.721 291.367 957.639 291.456 957.645 291.562L957.685 292.361C957.69 292.468 957.781 292.552 957.888 292.55Z" fill="#3F3D56"/>
      <path d="M953.936 292.642L955.526 292.605C955.632 292.602 955.715 292.514 955.709 292.407L955.669 291.609C955.664 291.502 955.573 291.418 955.466 291.421L953.876 291.458C953.77 291.46 953.687 291.549 953.693 291.655L953.733 292.454C953.739 292.56 953.829 292.645 953.936 292.642Z" fill="#3F3D56"/>
      <path d="M949.985 292.734L951.574 292.697C951.681 292.695 951.763 292.607 951.757 292.5L951.717 291.701C951.712 291.595 951.621 291.511 951.514 291.513L949.925 291.551C949.818 291.553 949.736 291.641 949.742 291.748L949.782 292.547C949.787 292.653 949.878 292.737 949.985 292.734Z" fill="#3F3D56"/>
      <path d="M946.033 292.827L947.623 292.79C947.729 292.788 947.812 292.699 947.806 292.593L947.766 291.794C947.76 291.688 947.67 291.603 947.563 291.605L945.973 291.643C945.866 291.645 945.784 291.734 945.79 291.84L945.83 292.639C945.835 292.746 945.926 292.83 946.033 292.827Z" fill="#3F3D56"/>
      <path d="M942.081 292.92L943.671 292.883C943.778 292.88 943.86 292.792 943.854 292.686L943.814 291.887C943.809 291.78 943.718 291.696 943.611 291.698L942.022 291.735C941.915 291.738 941.833 291.827 941.838 291.933L941.879 292.732C941.884 292.838 941.975 292.923 942.081 292.92Z" fill="#3F3D56"/>
      <path d="M968.676 294.669L984.097 294.307C984.204 294.304 984.286 294.216 984.28 294.11L984.24 293.311C984.235 293.205 984.144 293.12 984.037 293.122L968.617 293.484C968.51 293.486 968.428 293.575 968.434 293.681L968.474 294.48C968.48 294.586 968.57 294.671 968.676 294.669Z" fill="#3F3D56"/>
      <path d="M920.052 199.12L1020.95 196.756C1021.05 196.752 1021.15 196.706 1021.22 196.63C1021.29 196.553 1021.32 196.451 1021.32 196.346C1021.31 196.242 1021.27 196.142 1021.19 196.069C1021.11 195.995 1021.01 195.954 1020.91 195.955L920.011 198.319C919.906 198.323 919.809 198.369 919.739 198.445C919.67 198.522 919.633 198.624 919.639 198.729C919.644 198.833 919.691 198.933 919.768 199.006C919.845 199.079 919.947 199.121 920.052 199.12Z" fill="#3F3D56"/>
      <path d="M1013.93 194.069C1015.23 194.038 1016.23 192.938 1016.16 191.612C1016.1 190.286 1014.99 189.236 1013.69 189.266C1012.39 189.297 1011.39 190.396 1011.46 191.722C1011.53 193.049 1012.63 194.099 1013.93 194.069Z" fill="#3F3D56"/>
      <path d="M1005.81 194.259C1007.11 194.229 1008.11 193.129 1008.04 191.803C1007.97 190.476 1006.87 189.426 1005.57 189.456C1004.27 189.487 1003.27 190.587 1003.34 191.913C1003.4 193.239 1004.51 194.289 1005.81 194.259Z" fill="#3F3D56"/>
      <path d="M997.688 194.449C998.986 194.419 999.985 193.319 999.918 191.993C999.851 190.666 998.744 189.616 997.445 189.646C996.146 189.677 995.149 190.777 995.215 192.103C995.282 193.429 996.389 194.48 997.688 194.449Z" fill="#3F3D56"/>
      <path d="M924.178 192.397C924.181 192.453 924.194 192.509 924.219 192.561C924.243 192.613 924.277 192.661 924.319 192.7C924.361 192.739 924.41 192.77 924.464 192.791C924.517 192.812 924.574 192.822 924.631 192.821L930.4 192.686C930.514 192.68 930.62 192.631 930.696 192.547C930.772 192.464 930.81 192.353 930.805 192.239C930.799 192.125 930.749 192.017 930.665 191.937C930.581 191.858 930.47 191.813 930.356 191.813L924.587 191.948C924.472 191.952 924.364 192.002 924.288 192.086C924.211 192.17 924.172 192.281 924.178 192.397Z" fill="#3F3D56"/>
      <path d="M924.261 194.035C924.264 194.092 924.278 194.148 924.302 194.199C924.325 194.252 924.36 194.299 924.402 194.339C924.444 194.377 924.493 194.408 924.547 194.429C924.6 194.45 924.657 194.46 924.714 194.459L930.483 194.324C930.597 194.319 930.703 194.269 930.779 194.186C930.855 194.102 930.894 193.992 930.888 193.878C930.882 193.764 930.832 193.655 930.748 193.576C930.664 193.496 930.553 193.452 930.439 193.451L924.669 193.587C924.554 193.591 924.447 193.64 924.37 193.724C924.294 193.808 924.254 193.92 924.261 194.035Z" fill="#3F3D56"/>
      <path d="M924.343 195.669C924.349 195.784 924.399 195.894 924.484 195.974C924.569 196.055 924.681 196.099 924.796 196.098L930.565 195.962C930.68 195.957 930.786 195.907 930.861 195.824C930.937 195.741 930.976 195.63 930.97 195.516C930.964 195.402 930.914 195.294 930.83 195.214C930.747 195.134 930.636 195.09 930.522 195.09L924.753 195.225C924.696 195.227 924.64 195.239 924.589 195.262C924.537 195.286 924.491 195.319 924.453 195.36C924.415 195.401 924.386 195.45 924.367 195.503C924.349 195.556 924.34 195.612 924.343 195.669Z" fill="#3F3D56"/>
      <path d="M926.766 208.289L924.693 208.338C924.064 208.353 923.58 208.874 923.612 209.502C923.644 210.13 924.179 210.627 924.807 210.613L926.881 210.564C927.509 210.549 927.993 210.028 927.961 209.4C927.93 208.772 927.395 208.275 926.766 208.289Z"/>
      <path d="M950.475 207.734L948.402 207.783C947.773 207.797 947.29 208.319 947.322 208.946C947.353 209.574 947.889 210.072 948.517 210.056L950.59 210.008C951.219 209.994 951.702 209.472 951.671 208.845C951.639 208.217 951.104 207.719 950.475 207.734Z"/>
      <path d="M957.193 207.577L955.12 207.625C954.492 207.64 954.008 208.161 954.04 208.789C954.071 209.417 954.606 209.914 955.235 209.899L957.308 209.851C957.936 209.836 958.42 209.315 958.389 208.687C958.357 208.059 957.821 207.562 957.193 207.577Z"/>
      <path d="M944.017 207.696L931.132 207.998C930.504 208.012 930.02 208.533 930.052 209.161C930.083 209.789 930.618 210.287 931.247 210.272L944.131 209.97C944.76 209.955 945.244 209.434 945.212 208.806C945.181 208.178 944.646 207.681 944.017 207.696Z"/>
      <path d="M975.629 206.955L962.745 207.257C962.117 207.271 961.633 207.793 961.665 208.421C961.696 209.048 962.231 209.546 962.86 209.531L975.744 209.229C976.373 209.214 976.857 208.693 976.825 208.065C976.794 207.438 976.258 206.94 975.629 206.955Z"/>
      <path d="M933.347 213.274L931.274 213.323C930.646 213.337 930.162 213.858 930.193 214.486C930.225 215.114 930.761 215.611 931.389 215.596L933.462 215.548C934.091 215.533 934.574 215.012 934.543 214.384C934.511 213.757 933.976 213.259 933.347 213.274Z"/>
      <path d="M957.057 212.718L954.984 212.767C954.356 212.782 953.872 213.302 953.903 213.93C953.935 214.559 954.47 215.055 955.099 215.041L957.172 214.992C957.8 214.977 958.284 214.457 958.253 213.829C958.221 213.2 957.686 212.704 957.057 212.718Z"/>
      <path d="M963.775 212.561L961.701 212.609C961.073 212.624 960.589 213.145 960.621 213.773C960.652 214.401 961.188 214.898 961.817 214.883L963.889 214.835C964.518 214.82 965.002 214.299 964.97 213.671C964.938 213.043 964.403 212.546 963.775 212.561Z"/>
      <path d="M950.598 212.68L937.714 212.982C937.085 212.997 936.601 213.518 936.633 214.146C936.665 214.774 937.2 215.27 937.829 215.256L950.714 214.954C951.342 214.939 951.826 214.418 951.794 213.79C951.762 213.162 951.227 212.665 950.598 212.68Z"/>
      <path d="M982.211 211.939L969.327 212.241C968.698 212.256 968.214 212.777 968.246 213.405C968.278 214.033 968.813 214.529 969.442 214.515L982.326 214.213C982.954 214.198 983.438 213.678 983.406 213.05C983.375 212.422 982.84 211.924 982.211 211.939Z"/>
      <path d="M939.929 218.258L937.856 218.306C937.228 218.321 936.744 218.842 936.776 219.47C936.807 220.098 937.342 220.595 937.971 220.581L940.044 220.532C940.672 220.517 941.156 219.996 941.125 219.368C941.093 218.74 940.558 218.244 939.929 218.258Z"/>
      <path d="M963.639 217.703L961.565 217.751C960.937 217.766 960.453 218.287 960.485 218.915C960.517 219.542 961.052 220.04 961.681 220.025L963.754 219.976C964.382 219.962 964.866 219.441 964.834 218.813C964.802 218.185 964.267 217.687 963.639 217.703Z"/>
      <path d="M970.356 217.545L968.284 217.594C967.655 217.608 967.171 218.129 967.203 218.758C967.235 219.385 967.77 219.882 968.398 219.867L970.471 219.819C971.1 219.804 971.584 219.284 971.552 218.656C971.52 218.028 970.985 217.53 970.356 217.545Z"/>
      <path d="M957.18 217.664L944.296 217.966C943.667 217.98 943.183 218.501 943.215 219.129C943.247 219.757 943.782 220.255 944.41 220.24L957.295 219.938C957.923 219.923 958.407 219.402 958.376 218.774C958.344 218.146 957.809 217.649 957.18 217.664Z"/>
      <path d="M988.792 216.923L975.909 217.225C975.28 217.24 974.796 217.761 974.828 218.389C974.86 219.016 975.395 219.514 976.023 219.499L988.908 219.197C989.536 219.182 990.02 218.661 989.989 218.033C989.957 217.406 989.421 216.908 988.792 216.923Z"/>
      <path d="M946.511 223.242L944.437 223.291C943.809 223.305 943.325 223.827 943.357 224.454C943.389 225.082 943.924 225.58 944.553 225.564L946.626 225.516C947.254 225.502 947.738 224.98 947.706 224.352C947.674 223.725 947.139 223.227 946.511 223.242Z"/>
      <path d="M970.221 222.686L968.148 222.735C967.519 222.75 967.035 223.271 967.067 223.899C967.098 224.527 967.633 225.023 968.262 225.009L970.335 224.961C970.964 224.946 971.448 224.425 971.416 223.797C971.384 223.169 970.849 222.672 970.221 222.686Z"/>
      <path d="M976.938 222.529L974.865 222.578C974.236 222.592 973.753 223.113 973.784 223.741C973.816 224.369 974.352 224.867 974.98 224.852L977.053 224.803C977.681 224.788 978.165 224.267 978.133 223.639C978.102 223.011 977.567 222.515 976.938 222.529Z"/>
      <path d="M963.762 222.648L950.877 222.95C950.248 222.965 949.765 223.486 949.797 224.114C949.828 224.742 950.364 225.239 950.992 225.224L963.877 224.922C964.505 224.907 964.989 224.387 964.957 223.759C964.925 223.131 964.39 222.633 963.762 222.648Z"/>
      <path d="M952.283 243.539L950.21 243.588C949.582 243.602 949.098 244.123 949.13 244.751C949.161 245.379 949.696 245.877 950.325 245.861L952.398 245.813C953.027 245.798 953.511 245.277 953.479 244.649C953.447 244.021 952.911 243.524 952.283 243.539Z"/>
      <path d="M959.001 243.382L956.928 243.43C956.299 243.445 955.815 243.966 955.847 244.594C955.879 245.222 956.414 245.719 957.043 245.704L959.116 245.655C959.744 245.641 960.228 245.12 960.196 244.492C960.165 243.864 959.63 243.367 959.001 243.382Z"/>
      <path d="M977.456 243.139L964.572 243.441C963.943 243.456 963.459 243.976 963.491 244.604C963.523 245.232 964.059 245.73 964.687 245.715L977.571 245.413C978.2 245.398 978.683 244.877 978.652 244.249C978.62 243.621 978.085 243.124 977.456 243.139Z"/>
      <path d="M928.574 244.095L926.5 244.143C925.872 244.158 925.388 244.679 925.42 245.307C925.451 245.935 925.987 246.432 926.615 246.417L928.688 246.369C929.317 246.354 929.801 245.833 929.769 245.205C929.737 244.577 929.202 244.08 928.574 244.095Z"/>
      <path d="M945.843 243.879L932.959 244.182C932.331 244.196 931.847 244.717 931.879 245.345C931.911 245.973 932.446 246.47 933.074 246.456L945.959 246.154C946.587 246.139 947.071 245.618 947.039 244.99C947.008 244.362 946.472 243.865 945.843 243.879Z"/>
      <path d="M934.637 238.814L932.564 238.863C931.936 238.877 931.452 239.398 931.483 240.026C931.515 240.654 932.05 241.152 932.678 241.137L934.752 241.088C935.38 241.073 935.864 240.552 935.833 239.924C935.801 239.297 935.266 238.799 934.637 238.814Z"/>
      <path d="M958.346 238.258L956.273 238.307C955.645 238.322 955.161 238.843 955.193 239.471C955.225 240.099 955.76 240.596 956.388 240.581L958.462 240.533C959.09 240.518 959.574 239.997 959.542 239.369C959.51 238.741 958.975 238.244 958.346 238.258Z"/>
      <path d="M965.064 238.101L962.991 238.149C962.363 238.165 961.879 238.685 961.911 239.313C961.942 239.941 962.477 240.438 963.106 240.424L965.179 240.375C965.808 240.36 966.292 239.84 966.26 239.211C966.228 238.583 965.693 238.087 965.064 238.101Z"/>
      <path d="M951.907 238.599L939.022 238.901C938.394 238.916 937.91 239.437 937.942 240.065C937.974 240.693 938.509 241.19 939.138 241.175L952.022 240.873C952.651 240.859 953.134 240.338 953.102 239.71C953.071 239.082 952.535 238.584 951.907 238.599Z"/>
      <path d="M940.7 233.534L938.628 233.582C937.999 233.597 937.515 234.118 937.547 234.746C937.579 235.374 938.114 235.871 938.742 235.856L940.815 235.808C941.444 235.793 941.928 235.272 941.896 234.644C941.864 234.016 941.329 233.519 940.7 233.534Z"/>
      <path d="M964.41 232.978L962.337 233.027C961.708 233.041 961.224 233.563 961.256 234.19C961.288 234.818 961.823 235.316 962.452 235.301L964.525 235.252C965.153 235.238 965.637 234.716 965.605 234.088C965.573 233.461 965.039 232.963 964.41 232.978Z"/>
      <path d="M971.127 232.821L969.055 232.87C968.426 232.884 967.943 233.405 967.974 234.033C968.006 234.661 968.541 235.158 969.169 235.143L971.243 235.095C971.871 235.08 972.355 234.559 972.323 233.932C972.292 233.303 971.756 232.806 971.127 232.821Z"/>
      <path d="M957.971 233.319L945.086 233.621C944.457 233.635 943.973 234.156 944.005 234.784C944.037 235.412 944.572 235.91 945.201 235.895L958.085 235.593C958.714 235.578 959.197 235.057 959.166 234.429C959.134 233.801 958.599 233.304 957.971 233.319Z"/>
      <path d="M946.764 228.254L944.691 228.302C944.062 228.316 943.579 228.838 943.61 229.466C943.642 230.093 944.177 230.591 944.806 230.576L946.879 230.527C947.508 230.513 947.991 229.991 947.959 229.364C947.928 228.736 947.392 228.239 946.764 228.254Z"/>
      <path d="M970.474 227.698L968.4 227.746C967.772 227.761 967.288 228.282 967.32 228.91C967.351 229.538 967.886 230.035 968.515 230.021L970.588 229.972C971.217 229.957 971.701 229.436 971.669 228.808C971.637 228.18 971.102 227.683 970.474 227.698Z"/>
      <path d="M977.191 227.54L975.118 227.589C974.489 227.604 974.006 228.124 974.037 228.753C974.069 229.381 974.605 229.878 975.233 229.863L977.306 229.815C977.935 229.799 978.418 229.279 978.386 228.651C978.355 228.023 977.82 227.526 977.191 227.54Z"/>
      <path d="M964.034 228.039L951.15 228.34C950.521 228.355 950.037 228.876 950.069 229.504C950.101 230.132 950.635 230.629 951.264 230.614L964.149 230.312C964.777 230.298 965.261 229.777 965.229 229.149C965.198 228.521 964.663 228.024 964.034 228.039Z"/>
      <path d="M942.34 317.572C942.255 317.618 942.17 317.664 942.086 317.705C941.55 317.99 941.011 318.272 940.467 318.549C938.839 319.382 937.189 320.176 935.515 320.93C931.111 322.915 926.575 324.61 921.936 326.003C920.897 321.099 919.544 309.506 918.378 300.984C918.159 299.38 917.945 297.887 917.74 296.568C917.521 294.835 917.184 293.116 916.732 291.422C916.69 291.289 916.632 291.162 916.559 291.043C916.669 291.724 916.851 293.759 917.068 296.583C917.174 297.905 917.285 299.401 917.406 301.006C918.007 309.222 918.765 320.401 919.28 326.765C918.738 326.912 918.192 327.059 917.644 327.198C917.301 327.29 916.953 327.377 916.605 327.46C916.183 327.565 915.761 327.67 915.339 327.767C914.897 327.872 914.455 327.973 914.013 328.07C906.789 329.673 899.406 330.566 891.969 330.737C891.475 330.748 890.985 330.756 890.491 330.763C890.34 330.767 890.19 330.767 890.036 330.767C889.601 330.769 889.15 330.771 888.691 330.771C879.89 330.733 871.097 329.681 862.485 327.633L861.551 302.315L861.387 297.888L861.325 296.21C861.156 296.754 861.068 297.322 861.062 297.896C860.978 298.977 860.913 300.508 860.862 302.332C860.675 309.355 860.689 320.68 860.437 327.128C853.507 325.346 848.422 323.69 842.022 320.718C841.774 320.605 841.523 320.488 841.276 320.372C841.305 320.066 841.336 319.761 841.364 319.448C841.823 314.52 840.667 308.149 841.18 302.793C841.569 298.661 841.985 294.691 842.436 291.321C842.983 287.265 843.585 284.072 844.262 282.511C845.042 280.71 845.823 278.937 846.579 277.239C846.907 276.508 847.228 275.791 847.543 275.086C847.714 274.707 847.885 274.331 848.052 273.964C848.814 272.289 849.535 270.743 850.198 269.372C850.664 268.408 851.095 267.537 851.491 266.772C851.956 265.872 852.369 265.128 852.713 264.562C855.246 260.343 859.172 257.153 863.841 255.523L863.957 255.488L864.075 255.533L864.208 255.589L871.6 252.661L874.555 244.493L891.774 243.027L894.671 245.081L896.152 246.133L897.732 247.254L900.637 249.316L901.443 249.543L902.643 249.878L910.85 252.168L910.931 252.131L911.051 252.16C915.438 253.439 919.353 256.041 922.251 259.605C922.537 259.946 922.804 260.299 923.064 260.657C923.769 261.612 924.731 263.127 925.872 265.029C926.343 265.813 926.841 266.663 927.365 267.564C927.681 268.105 930.563 275.809 933.385 283.68C936.024 291.049 938.611 298.565 938.998 300.501C939.067 300.858 939.141 301.221 939.211 301.579C939.652 303.817 940.09 306.072 940.513 308.271C941.142 311.533 941.751 314.681 942.324 317.494C942.33 317.521 942.335 317.545 942.34 317.572Z" fill="#3F3D56"/>
      <path opacity="0.2" d="M922.593 289.424L918.581 276.557L916.181 287.797L922.593 289.424Z" fill="black"/>
      <path d="M808.874 291.938C809.073 292.441 809.426 292.872 809.88 293.169C810.335 293.465 810.868 293.613 811.403 293.591L821.858 293.077C822.398 293.053 822.91 292.856 823.319 292.515C823.729 292.174 824.013 291.707 824.129 291.182L824.811 275.322C825.349 275.548 825.927 275.651 826.503 275.627C827.514 275.577 828.453 275.129 829.114 274.379C829.775 273.63 830.103 272.641 830.027 271.63C829.95 270.62 829.475 269.67 828.706 268.991C827.937 268.311 826.938 267.956 825.927 268.005C825.696 268.009 825.467 268.039 825.244 268.093C824.986 267.833 824.677 267.629 824.338 267.494C823.999 267.359 823.637 267.295 823.276 267.308L807.194 268.1C807.061 268.108 806.929 268.128 806.799 268.159C806.45 268.233 806.122 268.381 805.838 268.594C805.554 268.807 805.321 269.079 805.154 269.393C804.987 269.706 804.891 270.053 804.871 270.411C804.851 270.769 804.908 271.129 805.039 271.467L808.874 291.938ZM825.061 274.241L825.925 270.444C826.022 270.006 826.002 269.546 825.865 269.112C825.916 269.111 825.96 269.085 826.011 269.084C826.733 269.052 827.447 269.308 827.994 269.795C828.542 270.282 828.879 270.961 828.932 271.682C828.986 272.404 828.751 273.11 828.279 273.645C827.807 274.179 827.137 274.5 826.415 274.536C825.948 274.561 825.48 274.459 825.061 274.241Z" fill="#2F2E41"/>
      <path d="M806.799 268.159C807.242 270.11 811.168 271.398 815.794 271.049C820.049 270.753 823.461 269.175 824.01 267.387C823.77 267.323 823.522 267.296 823.276 267.308L807.194 268.1C807.061 268.108 806.929 268.128 806.799 268.159Z" fill="#3F3D56"/>
      <path d="M817.25 283.036C817.271 283.029 817.291 283.02 817.309 283.008L819.507 281.468C819.533 281.449 819.555 281.424 819.569 281.395C819.583 281.366 819.59 281.334 819.588 281.301C819.586 281.268 819.577 281.236 819.56 281.207C819.542 281.179 819.519 281.155 819.49 281.137L817.049 279.647C817.027 279.633 817.002 279.624 816.976 279.619C816.951 279.615 816.924 279.616 816.899 279.622C816.874 279.628 816.85 279.638 816.829 279.653C816.809 279.669 816.791 279.688 816.778 279.71C816.765 279.732 816.756 279.756 816.753 279.782C816.749 279.808 816.751 279.834 816.757 279.859C816.764 279.885 816.776 279.908 816.791 279.929C816.807 279.951 816.827 279.968 816.849 279.982L819.03 281.314L817.076 282.683C817.038 282.709 817.011 282.749 817 282.794C816.989 282.838 816.994 282.886 817.015 282.929C817.036 282.971 817.071 283.005 817.114 283.025C817.157 283.044 817.205 283.048 817.25 283.036Z" fill="#005AA9"/>
      <path d="M813.668 283.285C813.705 283.275 813.739 283.253 813.764 283.223C813.788 283.193 813.803 283.156 813.807 283.117C813.81 283.078 813.802 283.039 813.783 283.004C813.763 282.969 813.734 282.94 813.699 282.921L811.543 281.77L813.493 280.22C813.513 280.204 813.529 280.184 813.542 280.161C813.554 280.139 813.561 280.114 813.564 280.088C813.566 280.063 813.564 280.037 813.556 280.011C813.548 279.986 813.536 279.963 813.519 279.943C813.503 279.922 813.483 279.905 813.46 279.892C813.437 279.879 813.412 279.872 813.386 279.868C813.36 279.865 813.334 279.867 813.309 279.874C813.284 279.881 813.261 279.892 813.241 279.908L811.058 281.645C811.033 281.664 811.013 281.691 811.001 281.721C810.989 281.751 810.984 281.783 810.988 281.816C810.991 281.849 811.003 281.88 811.022 281.908C811.04 281.935 811.065 281.958 811.095 281.974L813.52 283.269C813.566 283.293 813.619 283.299 813.668 283.285Z" fill="#005AA9"/>
      <path d="M817.09 284.343C817.109 284.338 817.127 284.33 817.143 284.319C817.164 284.305 817.183 284.287 817.197 284.266C817.211 284.245 817.221 284.221 817.226 284.196C817.231 284.17 817.231 284.144 817.225 284.118C817.22 284.093 817.21 284.068 817.195 284.046L813.705 278.829C813.676 278.784 813.63 278.754 813.579 278.743C813.527 278.732 813.474 278.742 813.431 278.77C813.388 278.798 813.358 278.843 813.348 278.893C813.338 278.945 813.349 278.998 813.378 279.042L816.868 284.26C816.892 284.295 816.926 284.323 816.966 284.338C817.006 284.353 817.049 284.355 817.09 284.343Z" fill="#005AA9"/>
      <path d="M1114.35 313.972C1114.11 314.1 1113.88 314.228 1113.64 314.352C1107.56 317.618 1102.65 319.507 1095.92 321.61C1095.01 315.188 1093.89 303.89 1092.99 296.891C1092.76 295.075 1092.54 293.55 1092.34 292.476C1092.28 291.904 1092.13 291.341 1091.91 290.806L1092.02 292.484L1092.3 296.908L1093.92 322.209C1085.54 324.655 1076.87 326.117 1068.1 326.565C1067.64 326.588 1067.19 326.607 1066.75 326.625C1066.6 326.632 1066.45 326.64 1066.3 326.643C1065.81 326.659 1065.32 326.674 1064.82 326.686C1055.56 326.91 1046.28 326.009 1037.18 324.002C1037.05 317.629 1036.68 306.44 1036.45 298.216C1036.41 296.609 1036.37 295.112 1036.34 293.788C1036.27 290.96 1036.25 288.92 1036.29 288.236C1036.23 288.358 1036.18 288.488 1036.15 288.622C1035.87 290.334 1035.71 292.064 1035.67 293.804C1035.59 295.13 1035.53 296.629 1035.48 298.239C1035.17 306.796 1034.99 318.424 1034.45 323.366C1029.68 322.193 1024.98 320.715 1020.39 318.941C1017.97 318.009 1015.59 316.999 1013.24 315.91C1013.53 313.057 1013.83 309.861 1014.13 306.546C1014.36 303.975 1014.6 301.333 1014.86 298.722C1015.25 294.69 1033.19 250.818 1037.86 249.187L1037.98 249.153L1038.06 249.186L1046.02 246.518L1047.18 246.127L1047.96 245.863L1050.65 243.67L1052.12 242.478L1053.49 241.359L1056.17 239.173L1073.5 239.831L1077.27 247.841L1084.94 250.416L1085.07 250.354L1085.18 250.304L1085.3 250.333C1090.12 251.741 1094.36 254.739 1097.31 258.83C1097.71 259.378 1098.2 260.102 1098.75 260.978C1099.23 261.722 1099.74 262.571 1100.31 263.511C1101.1 264.848 1101.98 266.357 1102.91 267.991C1103.11 268.35 1103.32 268.717 1103.53 269.087C1103.92 269.774 1104.31 270.475 1104.71 271.19C1105.64 272.848 1106.59 274.581 1107.55 276.341C1108.39 277.867 1109.31 281.023 1110.26 285.044C1111.05 288.385 1111.87 292.326 1112.67 296.43C1113.72 301.749 1113.21 308.161 1114.17 313.055C1114.23 313.366 1114.29 313.669 1114.35 313.972Z" fill="#3D5649"/>
      <path d="M1059.71 236.183C1070.8 235.924 1079.34 226.727 1078.78 215.643C1078.22 204.559 1068.77 195.784 1057.68 196.044C1046.58 196.303 1038.04 205.5 1038.6 216.584C1039.16 227.669 1048.61 236.443 1059.71 236.183Z" fill="#FFB6B6"/>
      <path opacity="0.2" d="M1030.1 286.905L1032.81 273.881L1036.34 284.982L1030.1 286.905Z" fill="black"/>
      <path d="M1119.03 276.376C1118.66 292.938 1120.27 300.189 1114.33 313.976C1108.45 317.068 1102.28 319.623 1095.92 321.61C1095.25 321.815 1094.59 322.015 1093.92 322.209C1085.54 324.655 1076.87 326.117 1068.1 326.566C1067.64 326.588 1067.19 326.607 1066.75 326.625C1066.6 326.632 1066.45 326.64 1066.3 326.643C1065.81 326.659 1065.32 326.674 1064.82 326.686C1055.56 326.91 1046.28 326.009 1037.18 324.002C1036.26 323.802 1035.35 323.59 1034.45 323.366C1029.68 322.193 1024.98 320.715 1020.39 318.941C1017.97 318.009 1015.59 316.999 1013.24 315.91C1012.71 315.662 1012.18 315.413 1011.66 315.157C1008.81 310.615 1007.03 305.052 1006.66 298.325C1007.89 286.692 1114.52 266.474 1119.03 276.376Z" fill="#2F2E41"/>
      <path opacity="0.2" d="M1119.17 279.208C1119.18 278.183 1119.19 277.123 1119.22 276.021C1114.7 266.119 1008.08 286.337 1006.85 297.97C1006.91 299.032 1007.01 300.063 1007.13 301.068C1010.95 289.525 1112.24 270.31 1119.17 279.208Z" fill="black"/>
      <path d="M1003.05 279.874L1011.66 275.259L1003.3 255.593L1000.86 245.634C1000.54 244.339 999.889 243.143 998.971 242.162C998.053 241.181 996.901 240.451 995.627 240.044C994.354 239.637 993.005 239.569 991.715 239.845C990.426 240.121 989.24 240.732 988.277 241.618C986.85 242.929 986.006 244.756 985.921 246.714C985.835 248.672 986.517 250.606 987.821 252.109L995.469 260.925L1003.05 279.874Z" fill="#FFB6B6"/>
      <path d="M1011.47 271.585L1000 277.739L1010.34 305.485C1011.08 307.477 1012.32 309.258 1013.94 310.655C1015.56 312.051 1017.5 313.016 1019.58 313.457C1022.14 313.999 1024.79 313.718 1027.13 312.654C1029.48 311.59 1031.4 309.798 1032.63 307.539L1054.26 266.434C1055.8 263.6 1056.15 260.249 1055.24 257.096C1054.32 253.943 1052.22 251.238 1049.38 249.559C1047.85 248.657 1046.15 248.08 1044.4 247.867C1042.66 247.655 1040.89 247.812 1039.23 248.326C1037.56 248.841 1036.04 249.704 1034.74 250.856C1033.45 252.009 1032.43 253.428 1031.73 255.018L1018.83 286.126L1011.47 271.585Z" fill="#3D5649"/>
      <path d="M882.822 238.941C895.03 238.655 904.427 228.537 903.811 216.341C903.195 204.145 892.8 194.49 880.592 194.776C868.385 195.062 858.989 205.181 859.604 217.377C860.22 229.573 870.615 239.228 882.822 238.941Z" fill="#A0616A"/>
      <path d="M859.101 202.153C860.776 199.691 863.272 197.91 865.134 195.587C866.155 194.313 866.983 192.876 868.146 191.729C870.305 189.598 873.429 188.672 876.496 188.494C879.859 188.329 883.235 188.957 886.352 190.329C889.468 191.701 892.237 193.777 894.433 196.389C895.992 195.411 897.55 194.432 899.11 193.454C899.828 195.108 900.547 196.762 901.266 198.415C901.764 197.951 902.415 197.682 903.105 197.656C903.794 197.63 904.477 197.849 905.032 198.274C905.587 198.699 905.979 199.302 906.139 199.978C906.297 200.653 906.213 201.356 905.901 201.962C906.224 200.773 907.962 200.482 908.967 201.239C909.972 201.996 910.3 203.377 910.205 204.611C910.076 205.965 909.542 207.239 908.673 208.268C907.804 209.298 906.639 210.035 905.328 210.387C903.256 210.903 900.791 210.47 899.182 211.849C897.891 212.954 897.584 214.918 896.263 215.989C894.636 217.307 892.217 216.772 890.128 217.104C886.475 217.685 883.753 221.511 884.38 225.182C883.989 224.028 883.579 222.841 882.776 221.915C881.973 220.989 880.668 220.381 879.528 220.755C877.642 221.374 877.46 223.989 878.022 225.92C879.513 231.044 884.598 239.262 884.598 239.262C878.662 241.791 871.332 239.703 866.43 235.283C861.528 230.863 858.77 224.506 857.386 218.113C856.212 212.691 856.035 206.66 859.101 202.153Z" fill="#2F2E41"/>
      <path d="M1084.43 226.587C1088.14 216.856 1085.31 208.048 1079.95 203.467L1079.95 203.463C1077.71 198.998 1074.85 195.578 1071.74 194.833C1070.21 193.916 1068.72 192.833 1067.09 192.302C1066.34 192.041 1065.54 191.935 1064.75 191.989C1063.96 192.043 1063.19 192.258 1062.49 192.619L1061.66 192.421C1060.88 190.673 1060.07 190.656 1059.23 191.838C1055.68 190.305 1052.52 189.655 1049.73 189.72C1040.66 189.933 1035.68 197.733 1034.73 207.044L1042.41 208.884L1044.84 204.625L1043.85 209.23L1048.09 210.241C1054.88 218.378 1048.22 237.673 1039.1 248.534C1041.37 247.845 1043.63 247.254 1045.89 246.763L1053.57 234.425L1048.99 245.599C1051.63 245.146 1055.06 245.441 1058.81 246.108C1059.98 244.445 1060.53 242.25 1059.79 240.323C1060.95 242.346 1061.79 244.531 1062.28 246.798C1070.23 248.528 1080.98 249.261 1086.79 249.852C1091.37 248.223 1090.52 231.053 1084.43 226.587Z" fill="#2F2E41"/>
      <path d="M1085.51 193.759C1088.94 200.577 1082.87 203.687 1077.17 203.736C1072.02 203.781 1067.47 200.272 1066.95 195.145C1066.7 192.683 1067.43 190.248 1069 188.377C1070.56 186.506 1072.82 185.352 1075.28 185.168C1080.41 184.785 1083.17 189.114 1085.51 193.759Z" fill="#2F2E41"/>
      <path d="M948.279 309.274L942.779 300.938L959.003 287.757L965.643 280.194C966.506 279.211 967.618 278.478 968.869 278.07C970.119 277.661 971.464 277.589 972.769 277.863C974.074 278.136 975.294 278.746 976.306 279.629C977.318 280.512 978.087 281.639 978.536 282.897C979.202 284.76 979.124 286.79 978.316 288.557C977.509 290.324 976.038 291.691 974.211 292.368L963.499 296.341L948.279 309.274Z" fill="#A0616A"/>
      <path d="M951.932 308.909L944.365 315.671L942.324 317.494L942.086 317.705C941.55 317.99 941.011 318.272 940.467 318.549C938.839 319.382 937.189 320.176 935.515 320.93C931.111 322.915 926.575 324.61 921.936 326.003C921.055 326.269 920.17 326.523 919.28 326.765C918.738 326.912 918.192 327.059 917.644 327.198C917.301 327.29 916.953 327.377 916.605 327.46C916.183 327.565 915.761 327.67 915.339 327.767C914.897 327.872 914.455 327.973 914.013 328.07C912.754 326.957 911.728 325.604 910.998 324.097C910.268 322.589 909.848 320.958 909.764 319.3C909.759 319.194 909.753 319.083 909.752 318.972L909.379 286.44L909.213 272.021C909.135 268.761 910.337 265.634 912.562 263.309C914.788 260.983 917.86 259.644 921.122 259.576C921.501 259.567 921.878 259.578 922.251 259.605C922.538 259.946 922.804 260.299 923.064 260.657C923.769 261.612 924.731 263.127 925.872 265.029C926.343 265.813 926.841 266.663 927.365 267.564C927.681 268.105 930.563 275.809 933.385 283.68L932.736 291.983L931.561 306.952L939.211 301.579L944.598 297.792L945.313 298.878L947.177 301.704L950.775 307.153L951.932 308.909Z" fill="#3F3D56"/>
      <path d="M947.132 299.721C947.162 300.393 947.179 301.052 947.177 301.704C947.185 303.503 947.067 305.297 946.823 307.073C946.427 310.054 945.599 312.95 944.365 315.671C944.202 316.035 944.025 316.394 943.845 316.747C943.35 317.027 942.844 317.3 942.34 317.572C942.255 317.618 942.17 317.664 942.086 317.705C939.94 318.85 937.75 319.925 935.515 320.93C931.111 322.915 926.575 324.61 921.936 326.003C921.055 326.269 920.17 326.523 919.28 326.765C917.544 327.241 915.788 327.676 914.013 328.07C906.789 329.673 899.406 330.566 891.969 330.737C891.475 330.748 890.985 330.756 890.49 330.764C890.34 330.767 890.19 330.767 890.036 330.767C889.601 330.769 889.15 330.771 888.691 330.771C879.89 330.733 871.097 329.681 862.485 327.633C861.8 327.471 861.117 327.303 860.437 327.128C853.884 325.444 847.478 323.184 841.296 320.375C833.977 306.898 834.854 299.589 832.818 283.084C834.973 276.871 876.91 280.24 909.379 286.44C918.192 288.123 926.303 290.016 932.736 291.983C939.382 294.013 944.232 296.121 946.194 298.162C946.65 298.583 946.977 299.126 947.132 299.721Z" fill="#2F2E41"/>
      <path opacity="0.2" d="M832.963 285.914C832.85 284.892 832.728 283.836 832.593 282.737C836.095 272.647 944.508 287.826 946.907 299.375C946.955 300.438 946.962 301.47 946.937 302.478C941.966 291.141 838.973 276.714 832.963 285.914Z" fill="black"/>
    </g>
    <g clip-path="url(#clip1_0_1)">
      <mask id="mask1_0_1" style="mask-type:luminance" maskUnits="userSpaceOnUse" x="955" y="317" width="333" height="298">
        <path d="M1288 317H955V615H1288V317Z" fill="white"/>
      </mask>
      <g mask="url(#mask1_0_1)">
        <path d="M1010.23 420.739C1009.45 420.82 1008.67 420.838 1007.89 420.795C1007.75 420.781 1007.62 420.82 1007.52 420.905C1007.41 420.99 1007.34 421.114 1007.32 421.251L1005.83 432.765C1005.71 433.6 1005.38 434.388 1004.86 435.046C1004.44 435.568 1004.12 436.175 1003.93 436.829C1003.75 437.483 1003.69 438.168 1003.77 438.844V458.403C1003.77 458.403 1003.68 461.01 1005.63 461.01C1007.97 461.311 1010.33 461.311 1012.67 461.01C1012.67 461.01 1014.23 460.707 1014.23 458.3V439.043C1014.35 438.37 1014.33 437.68 1014.16 437.019C1013.99 436.358 1013.69 435.742 1013.27 435.214C1012.77 434.554 1012.44 433.773 1012.33 432.946L1010.78 421.192C1010.76 421.06 1010.69 420.939 1010.59 420.855C1010.49 420.771 1010.36 420.729 1010.23 420.739Z" fill="white"/>
        <path d="M1009.14 461.565C1007.96 461.565 1006.78 461.49 1005.61 461.34C1005.35 461.346 1005.09 461.297 1004.84 461.195C1004.6 461.094 1004.38 460.942 1004.2 460.748C1003.41 459.902 1003.45 458.451 1003.45 458.389L1003.45 438.865C1003.37 438.147 1003.43 437.419 1003.63 436.726C1003.83 436.033 1004.17 435.389 1004.62 434.834C1005.1 434.224 1005.4 433.493 1005.51 432.718L1007.01 421.207C1007.03 420.986 1007.15 420.785 1007.32 420.646C1007.49 420.509 1007.71 420.444 1007.92 420.467C1008.68 420.508 1009.44 420.49 1010.2 420.411L1010.21 420.41C1010.42 420.394 1010.63 420.462 1010.79 420.599C1010.96 420.735 1011.07 420.931 1011.09 421.146L1012.65 432.902C1012.76 433.671 1013.06 434.397 1013.52 435.011C1013.97 435.572 1014.29 436.225 1014.47 436.926C1014.65 437.626 1014.68 438.359 1014.55 439.072V458.3C1014.55 460.949 1012.75 461.331 1012.73 461.334C1011.54 461.489 1010.34 461.565 1009.14 461.565ZM1007.84 421.123C1007.8 421.121 1007.75 421.137 1007.71 421.169C1007.67 421.199 1007.65 421.244 1007.64 421.292L1006.15 432.808C1006.02 433.704 1005.67 434.549 1005.11 435.252C1004.72 435.741 1004.42 436.309 1004.24 436.92C1004.07 437.53 1004.02 438.172 1004.09 438.804L1004.09 438.844V458.403C1004.09 458.426 1004.06 459.65 1004.66 460.292C1004.79 460.422 1004.94 460.525 1005.11 460.591C1005.27 460.658 1005.45 460.689 1005.63 460.68L1005.67 460.683C1007.98 460.98 1010.32 460.98 1012.63 460.683C1012.66 460.675 1013.91 460.382 1013.91 458.3L1013.91 438.983C1014.03 438.359 1014 437.717 1013.85 437.102C1013.69 436.486 1013.41 435.914 1013.02 435.423C1012.48 434.716 1012.13 433.878 1012.01 432.992L1010.46 421.235C1010.45 421.188 1010.43 421.143 1010.39 421.113C1010.35 421.082 1010.31 421.066 1010.26 421.068C1009.47 421.149 1008.67 421.169 1007.87 421.125C1007.86 421.124 1007.85 421.123 1007.84 421.123Z" fill="#3F3D56"/>
        <path d="M1007.87 439.195H1010.24C1011.18 439.195 1012.09 439.579 1012.76 440.263C1013.42 440.947 1013.8 441.874 1013.8 442.842V451.996C1013.8 452.963 1013.42 453.89 1012.76 454.575C1012.09 455.258 1011.18 455.643 1010.24 455.643H1007.87C1006.93 455.643 1006.02 455.258 1005.36 454.575C1004.69 453.89 1004.32 452.963 1004.32 451.996V442.842C1004.32 442.363 1004.41 441.889 1004.59 441.446C1004.77 441.003 1005.03 440.602 1005.36 440.263C1005.69 439.924 1006.08 439.655 1006.51 439.472C1006.94 439.289 1007.4 439.195 1007.87 439.195Z" fill="#EC4949"/>
        <path d="M964.287 607.312H972.016L975.693 576.719L964.285 576.72L964.287 607.312Z" fill="#9F616A"/>
        <path d="M962.315 604.722L977.537 604.721C980.109 604.722 982.577 605.77 984.396 607.638C986.215 609.504 987.237 612.035 987.238 614.676V614.999L962.316 615L962.315 604.722Z" fill="#2F2E41"/>
        <path d="M959.428 498.043C959.428 498.043 956.078 501.929 961.625 517.076L960.648 600.126L978.623 599.766L982.574 559.255L989.767 500.137L959.428 498.043Z" fill="#2F2E41"/>
        <path d="M995.932 509.526L995.735 509.495C972.741 505.896 955.388 502.446 955.216 502.411L955 502.369L961.028 487.324C960.98 485.752 959.675 441.605 962.173 428.921C964.591 416.642 975.99 414.63 977.288 414.441L978.593 410.006L995.07 418.804L997.943 428.954L998.527 456.77L995.932 509.526Z" fill="#005AA9"/>
        <path d="M1005.86 452.274C1005.11 452.274 1004.38 452.431 1003.7 452.736C1003.02 453.041 1002.41 453.487 1001.91 454.046H974.211L964.066 456.263L965.732 469.445L1001.82 461.481C1002.42 462.174 1003.17 462.701 1004.02 463.016C1004.87 463.331 1005.78 463.423 1006.67 463.284C1007.56 463.145 1008.4 462.78 1009.12 462.22C1009.84 461.661 1010.41 460.926 1010.78 460.082C1011.15 459.239 1011.31 458.314 1011.24 457.392C1011.17 456.469 1010.88 455.579 1010.39 454.803C1009.9 454.026 1009.23 453.388 1008.44 452.946C1007.64 452.505 1006.76 452.274 1005.86 452.274Z" fill="#9F616A"/>
        <path d="M1006.1 405.023C1009.63 398.385 1007.26 390.063 1000.79 386.435C994.318 382.806 986.209 385.246 982.673 391.883C979.137 398.521 981.514 406.842 987.982 410.471C994.451 414.1 1002.56 411.66 1006.1 405.023Z" fill="#9F616A"/>
        <path d="M981.831 387.503L981.184 386.166L984.44 384.507C984.44 384.507 988.032 378.509 994.531 380.195C1001.03 381.88 1003.96 382.889 1003.96 382.889L1007.2 384.566L1005.57 386.23L1008.5 387.238L1006.54 388.234L1008.82 389.575L1007.59 396.448C1007.59 396.448 1005.56 391.235 1001.65 393.227C997.746 395.219 990.6 392.197 990.6 392.197L984.391 404.528C984.391 404.528 983.11 400.206 980.826 401.358C980.826 401.358 974.991 391.823 981.831 387.503Z" fill="#2F2E41"/>
        <path d="M965.909 471.916L962.742 462.249L961.976 430.023L963.325 425.45C963.811 423.805 964.616 422.277 965.691 420.957C966.766 419.639 968.089 418.556 969.582 417.775C971.074 416.993 972.705 416.529 974.377 416.41C976.048 416.29 977.726 416.519 979.31 417.081C980.893 417.643 982.35 418.527 983.592 419.682C984.835 420.835 985.838 422.235 986.54 423.795C987.243 425.356 987.632 427.046 987.683 428.765C987.734 430.484 987.446 432.195 986.837 433.798L979.604 452.817L979.971 453.549L995.642 453.419L1001.21 463.7L965.909 471.916Z" fill="#005AA9"/>
        <path d="M1122.69 467.944C1123.28 467.54 1123.77 467.008 1124.13 466.389C1124.5 465.769 1124.72 465.075 1124.8 464.355C1124.87 463.635 1124.79 462.908 1124.56 462.224C1124.33 461.54 1123.95 460.916 1123.46 460.396L1131.19 444.695L1122.34 445.748L1116.36 460.497C1115.57 461.4 1115.12 462.572 1115.11 463.79C1115.1 465.008 1115.52 466.188 1116.31 467.106C1117.09 468.024 1118.17 468.616 1119.34 468.77C1120.52 468.925 1121.71 468.631 1122.69 467.944Z" fill="#FFB7B7"/>
        <path d="M1184.64 579.158H1177.68L1174.37 551.604L1184.64 551.605L1184.64 579.158Z" fill="#FFB7B7"/>
        <path d="M1186.42 586.082L1163.97 586.082V585.79C1163.97 583.413 1164.89 581.132 1166.53 579.451C1168.17 577.77 1170.39 576.825 1172.71 576.825H1172.71L1186.42 576.826L1186.42 586.082Z" fill="#2F2E41"/>
        <path d="M1146.6 579.158H1139.64L1136.32 551.604L1146.6 551.605L1146.6 579.158Z" fill="#FFB7B7"/>
        <path d="M1146.67 586.082L1124.22 586.082V585.79C1124.22 583.413 1125.14 581.132 1126.78 579.451C1128.42 577.77 1130.64 576.825 1132.96 576.825H1132.96L1146.67 576.826L1146.67 586.082Z" fill="#2F2E41"/>
        <path d="M1146.03 462.787L1139.21 478.895L1133.59 571.48L1147.79 570.898L1151.67 526.762L1163.62 487.452L1170.5 531.277L1173.34 569.732L1185.09 570.255L1189.77 462.787H1146.03Z" fill="#2F2E41"/>
        <path d="M1180.09 383.302L1160.34 383.809L1148.74 389.917L1148.11 434.979L1140.88 466.091C1140.88 466.091 1186.06 469.281 1192.3 464.62L1184.92 429.077L1194.82 390.666L1180.09 383.302Z" fill="#005AA9"/>
        <path d="M1151.79 390.664L1149.96 389.39C1149.96 389.39 1142.34 391.733 1140.09 402.154C1140.09 402.154 1138.37 407.382 1137.61 410.978C1136.74 415.1 1117.6 452.974 1117.6 452.974L1129.06 456.348L1150.07 421.476L1151.79 390.664Z" fill="#9DBE3B"/>
        <path d="M1194.51 473.722C1194.06 473.168 1193.73 472.519 1193.55 471.82C1193.37 471.121 1193.33 470.389 1193.46 469.677C1193.58 468.965 1193.85 468.289 1194.26 467.696C1194.66 467.104 1195.19 466.61 1195.8 466.249L1192.6 448.972L1200.82 452.487L1202.6 468.356C1203.12 469.449 1203.24 470.701 1202.92 471.876C1202.6 473.049 1201.88 474.063 1200.88 474.725C1199.88 475.386 1198.68 475.65 1197.51 475.465C1196.34 475.28 1195.27 474.66 1194.51 473.722Z" fill="#FFB7B7"/>
        <path d="M1191.85 391.204L1193.96 390.5C1193.96 390.5 1200.65 394.907 1200.02 405.561C1200.02 405.561 1200.27 411.074 1200.03 414.744C1199.75 418.952 1203.43 460.774 1203.43 460.774H1191.51L1186.4 422.901L1191.85 391.204Z" fill="#9DBE3B"/>
        <path d="M1184.93 364.397C1184.93 367.176 1184.13 369.892 1182.63 372.202C1181.12 374.512 1178.99 376.313 1176.48 377.376C1173.98 378.439 1171.23 378.717 1168.57 378.175C1165.92 377.633 1163.48 376.295 1161.56 374.331C1159.65 372.366 1158.35 369.863 1157.82 367.138C1157.29 364.413 1157.56 361.588 1158.6 359.021C1159.63 356.454 1161.39 354.26 1163.64 352.717C1165.89 351.173 1168.54 350.349 1171.25 350.349C1174.87 350.34 1178.34 351.807 1180.91 354.429C1183.48 357.05 1184.93 360.611 1184.93 364.327C1184.93 364.35 1184.93 364.374 1184.93 364.397Z" fill="#FFB7B7"/>
        <path d="M1157.6 345.528C1159.2 341.989 1162.31 342.689 1165.02 343.889C1168.46 343.106 1171.73 340.764 1175.43 342.149C1179.08 347.594 1191.33 345.992 1188.72 354.855C1188.72 356.979 1192.62 355.743 1191.93 359.222C1194 365.916 1184.48 378.594 1179.02 375.924C1180.37 373.383 1183.46 367.61 1178.77 367.037C1168.7 376.654 1177.73 348.724 1165.08 356.846C1160.89 360.782 1155.15 349.464 1157.6 345.528Z" fill="#2F2E41"/>
        <path d="M1196.91 475.123C1197.56 475.257 1198.23 475.243 1198.88 475.083C1199.53 474.922 1200.13 474.617 1200.65 474.19C1201.17 473.763 1201.59 473.225 1201.89 472.614C1202.18 472.001 1202.34 471.33 1202.35 470.648L1236.73 437.448L1228.99 431.117L1197.58 465.826C1196.46 465.877 1195.4 466.347 1194.6 467.148C1193.79 467.949 1193.3 469.023 1193.22 470.169C1193.14 471.316 1193.47 472.452 1194.15 473.366C1194.83 474.279 1195.81 474.904 1196.91 475.123Z" fill="#9F616A"/>
        <path d="M1231.86 442.814L1225.17 434.772C1224.98 434.543 1224.84 434.275 1224.76 433.986C1224.68 433.696 1224.66 433.393 1224.71 433.096C1224.75 432.798 1224.86 432.514 1225.02 432.263C1225.18 432.012 1225.39 431.799 1225.64 431.639L1234.35 426.046C1235.49 425.054 1236.98 424.569 1238.47 424.696C1239.96 424.825 1241.35 425.556 1242.32 426.729C1243.29 427.903 1243.77 429.424 1243.65 430.958C1243.53 432.492 1242.82 433.914 1241.68 434.914L1234.95 442.832C1234.75 443.059 1234.52 443.24 1234.25 443.364C1233.98 443.487 1233.69 443.551 1233.4 443.549C1233.11 443.547 1232.82 443.481 1232.55 443.354C1232.28 443.228 1232.05 443.043 1231.86 442.814Z" fill="#CBCBCB"/>
        <path d="M1213.88 606.64H1205.47L1201.47 573.374L1213.88 573.375L1213.88 606.64Z" fill="#9F616A"/>
        <path d="M1216.02 615L1188.92 614.999V614.647C1188.92 611.777 1190.03 609.024 1192.01 606.994C1193.99 604.964 1196.67 603.823 1199.47 603.823H1199.47L1216.02 603.824L1216.02 615Z" fill="#2F2E41"/>
        <path d="M1281.06 606.64H1272.65L1268.65 573.374L1281.06 573.375L1281.06 606.64Z" fill="#9F616A"/>
        <path d="M1283.2 615L1256.1 614.999V614.647C1256.1 611.777 1257.21 609.024 1259.19 606.994C1261.17 604.964 1263.85 603.823 1266.65 603.823H1266.65L1283.2 603.824L1283.2 615Z" fill="#2F2E41"/>
        <path d="M1258.45 460.448L1266.92 428.329L1255.93 421.99H1240.59L1234.62 428.541C1234.62 428.541 1224.66 435.658 1227.07 443.543L1230.96 461.505L1225.01 490.03L1195.01 532.714L1187.91 574.641L1215.86 582.16L1246.09 521.092L1260.74 588.711L1288 587.304L1278.61 505.317C1278.61 505.317 1275.93 480.341 1261.89 464.747L1258.45 460.448Z" fill="#005AA9"/>
        <path d="M1275.94 488.866C1276.42 488.385 1276.78 487.805 1277.01 487.164C1277.24 486.524 1277.33 485.84 1277.28 485.16C1277.22 484.48 1277.02 483.82 1276.69 483.228C1276.36 482.636 1275.91 482.126 1275.36 481.733L1268.79 436.228L1259.35 439.284L1268.8 483.11C1268.22 484.092 1268 485.259 1268.2 486.389C1268.4 487.52 1269 488.536 1269.88 489.246C1270.76 489.955 1271.87 490.309 1272.98 490.238C1274.1 490.168 1275.15 489.68 1275.94 488.866Z" fill="#9F616A"/>
        <path d="M1270.41 443.369L1260.18 444.58C1259.89 444.615 1259.59 444.584 1259.31 444.491C1259.03 444.398 1258.78 444.244 1258.56 444.041C1258.35 443.837 1258.18 443.588 1258.06 443.311C1257.95 443.033 1257.9 442.734 1257.91 442.433L1258.24 431.899C1258.07 430.369 1258.51 428.835 1259.45 427.633C1260.38 426.432 1261.75 425.661 1263.24 425.489C1264.73 425.317 1266.22 425.758 1267.4 426.717C1268.57 427.675 1269.33 429.072 1269.5 430.601L1272.15 440.748C1272.23 441.039 1272.24 441.342 1272.19 441.639C1272.14 441.936 1272.03 442.218 1271.87 442.466C1271.7 442.715 1271.49 442.925 1271.24 443.081C1270.98 443.236 1270.7 443.334 1270.41 443.369Z" fill="#CBCBCB"/>
        <path d="M1231.11 412.856V399.323C1231.11 394.514 1232.97 389.902 1236.28 386.501C1239.6 383.1 1244.09 381.19 1248.78 381.19C1253.46 381.19 1257.96 383.1 1261.27 386.501C1264.59 389.902 1266.45 394.514 1266.45 399.323V412.856C1266.45 413.502 1266.2 414.121 1265.75 414.578C1265.31 415.034 1264.7 415.292 1264.08 415.292H1233.48C1232.85 415.292 1232.25 415.034 1231.8 414.578C1231.36 414.121 1231.11 413.502 1231.11 412.856Z" fill="#2F2E41"/>
        <path d="M1251.36 413.348C1257.64 409.826 1259.95 401.748 1256.51 395.305C1253.08 388.862 1245.21 386.494 1238.93 390.016C1232.65 393.538 1230.35 401.617 1233.78 408.059C1237.21 414.502 1245.08 416.87 1251.36 413.348Z" fill="#9F616A"/>
        <path d="M1226.92 400.406C1226.93 396.603 1228.4 392.957 1231.02 390.268C1233.64 387.578 1237.2 386.066 1240.9 386.061H1243.54C1247.25 386.066 1250.8 387.578 1253.42 390.268C1256.04 392.957 1257.52 396.603 1257.52 400.406V400.677H1251.95L1250.05 395.214L1249.66 400.677H1246.78L1245.83 397.921L1245.63 400.677H1226.92V400.406Z" fill="#2F2E41"/>
        <path d="M1243.87 416.814C1243.61 416.451 1243.45 416.018 1243.42 415.567C1243.39 415.116 1243.48 414.666 1243.68 414.266C1246.48 408.811 1250.39 398.73 1245.2 392.514L1244.83 392.067H1259.91V415.3L1246.21 417.78C1246.07 417.805 1245.93 417.818 1245.79 417.818C1245.41 417.818 1245.04 417.727 1244.71 417.553C1244.38 417.378 1244.09 417.125 1243.87 416.814Z" fill="#2F2E41"/>
        <path d="M1105.26 429.185C1105.07 429.387 1104.9 429.604 1104.74 429.834L1080.17 429.217L1077.3 423.842L1068.83 427.222L1073 437.243C1073.34 438.053 1073.93 438.728 1074.67 439.168C1075.41 439.608 1076.27 439.788 1077.13 439.683L1104.89 436.241C1105.54 437.092 1106.43 437.718 1107.44 438.036C1108.45 438.354 1109.53 438.349 1110.54 438.022C1111.55 437.695 1112.43 437.06 1113.08 436.203C1113.73 435.346 1114.11 434.308 1114.16 433.225C1114.22 432.142 1113.96 431.068 1113.4 430.143C1112.85 429.219 1112.04 428.489 1111.07 428.05C1110.11 427.612 1109.03 427.486 1108 427.689C1106.96 427.891 1106 428.414 1105.26 429.185Z" fill="#FFB7B7"/>
        <path d="M1025.17 582.311H1033.24L1037.09 550.334L1025.16 550.335L1025.17 582.311Z" fill="#FFB7B7"/>
        <path d="M1023.11 579.605L1039.02 579.604C1041.7 579.605 1044.28 580.701 1046.19 582.652C1048.09 584.603 1049.16 587.25 1049.16 590.009V590.347L1023.11 590.348L1023.11 579.605Z" fill="#2F2E41"/>
        <path d="M1098.53 582.127L1105.96 578.871L1097.25 547.914L1086.28 552.721L1098.53 582.127Z" fill="#FFB7B7"/>
        <path d="M1095.6 580.469L1110.23 574.054C1112.7 572.97 1115.49 572.939 1117.99 573.967C1120.48 574.995 1122.48 576.997 1123.54 579.535L1123.66 579.846L1099.71 590.348L1095.6 580.469Z" fill="#2F2E41"/>
        <path d="M1064.44 436.112L1065.02 445.827L1047.94 447.703L1030.07 449.665L1035.33 434.914L1064.44 436.112Z" fill="#FFB7B7"/>
        <path d="M1065.04 439.599C1064.84 439.52 1045.55 431.821 1033.71 438.117L1033.41 438.271L1031.05 426.334L1029.7 400.667L1038.47 396.418L1040.88 390.872L1057.32 389.873L1060.69 394.627L1072.19 398.494L1065.32 439.714L1065.04 439.599Z" fill="#9DBE3B"/>
        <path d="M1065.64 416.431L1067.67 400.041L1072.3 398.594L1072.38 398.624C1072.49 398.664 1075 399.653 1075.69 403.226C1076.35 406.657 1081.33 428.003 1081.38 428.219L1081.43 428.432L1069.73 433.235L1065.64 416.431Z" fill="#E4E4E4"/>
        <path d="M1092.51 576.507L1108.08 573.23L1083.19 502.768L1074.68 478.735C1074.68 478.735 1069.28 459.465 1066.84 452.008L1065.36 442.002L1030.5 445.962C1030.5 445.962 1020.76 460.637 1023.72 484.556L1022.38 574.459L1037.95 575.278L1050.99 484.607L1073.88 534.312C1073.88 534.312 1081.09 555.524 1086.26 560.121L1092.51 576.507Z" fill="#A9005B"/>
        <path d="M1044.48 449.299C1044.21 449.292 1043.93 449.307 1043.66 449.345L1027.39 430.437L1029.29 424.625L1021.11 420.549L1016.79 430.503C1016.44 431.307 1016.35 432.205 1016.54 433.064C1016.74 433.922 1017.19 434.694 1017.85 435.263L1039.18 453.813C1039.02 454.884 1039.18 455.98 1039.64 456.956C1040.1 457.933 1040.83 458.742 1041.75 459.277C1042.67 459.813 1043.73 460.048 1044.78 459.952C1045.83 459.857 1046.83 459.435 1047.64 458.742C1048.46 458.05 1049.05 457.12 1049.33 456.076C1049.62 455.032 1049.58 453.924 1049.24 452.899C1048.9 451.873 1048.26 450.98 1047.41 450.337C1046.56 449.694 1045.54 449.332 1044.48 449.299Z" fill="#FFB7B7"/>
        <path d="M1019.64 423.35L1026 404.764C1026.71 402.573 1027.61 401.242 1028.66 400.808C1028.87 400.712 1029.09 400.661 1029.32 400.66C1029.55 400.657 1029.77 400.703 1029.98 400.795L1032.83 404.491L1035.48 415.899L1028.69 432.277L1019.64 423.35Z" fill="#E4E4E4"/>
        <path d="M1061.73 386.027H1033.81C1033.24 386.027 1032.69 385.792 1032.28 385.376C1031.88 384.959 1031.65 384.394 1031.65 383.805V371.458C1031.65 367.07 1033.35 362.862 1036.37 359.759C1039.39 356.656 1043.5 354.913 1047.77 354.913C1052.05 354.913 1056.15 356.656 1059.17 359.759C1062.2 362.862 1063.89 367.07 1063.89 371.458V383.805C1063.89 384.394 1063.67 384.959 1063.26 385.376C1062.85 385.792 1062.3 386.027 1061.73 386.027Z" fill="#2F2E41"/>
        <path d="M1051.08 385.74C1057.61 385.74 1062.91 380.309 1062.91 373.61C1062.91 366.91 1057.61 361.479 1051.08 361.479C1044.56 361.479 1039.26 366.91 1039.26 373.61C1039.26 380.309 1044.56 385.74 1051.08 385.74Z" fill="#FFB7B7"/>
        <path d="M1067.71 372.693H1050.64L1050.46 370.178L1049.59 372.693H1046.96L1046.61 367.708L1044.88 372.693H1039.79V372.446C1039.8 368.976 1041.14 365.649 1043.53 363.195C1045.93 360.742 1049.17 359.362 1052.55 359.358H1054.95C1058.34 359.362 1061.58 360.742 1063.97 363.195C1066.36 365.649 1067.7 368.976 1067.71 372.446V372.693Z" fill="#2F2E41"/>
        <path d="M1050.5 388.332C1050.37 388.332 1050.24 388.32 1050.12 388.297L1037.62 386.034V364.837H1051.38L1051.04 365.245C1046.3 370.917 1049.87 380.114 1052.42 385.091C1052.61 385.456 1052.69 385.867 1052.66 386.278C1052.63 386.69 1052.49 387.084 1052.25 387.416C1052.05 387.7 1051.79 387.93 1051.48 388.09C1051.18 388.249 1050.84 388.332 1050.5 388.332Z" fill="#2F2E41"/>
        <path d="M1200.22 439.284C1199.44 439.364 1198.66 439.384 1197.88 439.34C1197.74 439.325 1197.61 439.364 1197.5 439.45C1197.4 439.535 1197.33 439.659 1197.31 439.796L1195.82 451.309C1195.7 452.145 1195.37 452.933 1194.85 453.59C1194.43 454.113 1194.11 454.72 1193.92 455.373C1193.74 456.027 1193.68 456.713 1193.76 457.389V476.947C1193.76 476.947 1193.67 479.555 1195.62 479.555C1197.96 479.856 1200.32 479.856 1202.66 479.555C1202.66 479.555 1204.22 479.251 1204.22 476.845V457.588C1204.34 456.916 1204.31 456.225 1204.15 455.564C1203.98 454.903 1203.68 454.287 1203.25 453.758C1202.76 453.099 1202.43 452.317 1202.32 451.491L1200.76 439.736C1200.75 439.604 1200.68 439.484 1200.58 439.4C1200.48 439.316 1200.35 439.274 1200.22 439.284Z" fill="white"/>
        <path d="M1199.13 480.11C1197.95 480.11 1196.77 480.035 1195.6 479.885C1195.34 479.891 1195.08 479.842 1194.83 479.74C1194.59 479.638 1194.37 479.486 1194.19 479.293C1193.39 478.446 1193.44 476.996 1193.44 476.935L1193.44 457.409C1193.36 456.691 1193.42 455.964 1193.62 455.27C1193.82 454.578 1194.15 453.934 1194.61 453.379C1195.08 452.769 1195.39 452.038 1195.5 451.263L1196.99 439.752C1197.02 439.53 1197.14 439.33 1197.31 439.192C1197.48 439.053 1197.7 438.989 1197.91 439.012C1198.67 439.053 1199.43 439.034 1200.19 438.956L1200.2 438.955C1200.41 438.939 1200.62 439.006 1200.78 439.143C1200.95 439.28 1201.05 439.476 1201.08 439.692L1202.64 451.446C1202.74 452.215 1203.04 452.943 1203.51 453.555C1203.96 454.116 1204.28 454.77 1204.46 455.47C1204.64 456.171 1204.66 456.903 1204.54 457.617V476.845C1204.54 479.494 1202.73 479.875 1202.72 479.879C1201.53 480.033 1200.33 480.11 1199.13 480.11ZM1197.83 439.668C1197.78 439.666 1197.74 439.682 1197.7 439.713C1197.66 439.745 1197.64 439.788 1197.63 439.837L1196.14 451.353C1196.01 452.248 1195.66 453.093 1195.1 453.797C1194.71 454.286 1194.41 454.853 1194.23 455.465C1194.06 456.075 1194.01 456.717 1194.08 457.349L1194.08 457.389V476.947C1194.08 476.971 1194.05 478.194 1194.65 478.837C1194.78 478.968 1194.93 479.07 1195.1 479.137C1195.26 479.203 1195.44 479.233 1195.62 479.225L1195.66 479.227C1197.97 479.525 1200.31 479.525 1202.62 479.227C1202.65 479.22 1203.9 478.927 1203.9 476.845L1203.9 457.529C1204.01 456.903 1203.99 456.261 1203.84 455.646C1203.68 455.032 1203.4 454.459 1203.01 453.968C1202.47 453.261 1202.12 452.423 1202 451.537L1200.45 439.781C1200.44 439.732 1200.42 439.688 1200.38 439.658C1200.34 439.626 1200.3 439.611 1200.25 439.613C1199.45 439.695 1198.66 439.714 1197.86 439.67C1197.85 439.668 1197.84 439.668 1197.83 439.668Z" fill="#3F3D56"/>
        <path d="M1197.86 457.739H1200.23C1201.17 457.739 1202.08 458.124 1202.74 458.807C1203.41 459.492 1203.79 460.419 1203.79 461.386V470.54C1203.79 471.508 1203.41 472.435 1202.74 473.119C1202.08 473.803 1201.17 474.187 1200.23 474.187H1197.86C1196.92 474.187 1196.01 473.803 1195.35 473.119C1194.68 472.435 1194.31 471.508 1194.31 470.54V461.386C1194.31 460.419 1194.68 459.492 1195.35 458.807C1196.01 458.124 1196.92 457.739 1197.86 457.739Z" fill="#A9005B"/>
        <path d="M1119.77 423.426C1118.99 423.507 1118.21 423.525 1117.43 423.482C1117.29 423.467 1117.16 423.507 1117.05 423.592C1116.95 423.677 1116.88 423.802 1116.86 423.937L1115.37 435.451C1115.25 436.287 1114.92 437.075 1114.4 437.732C1113.98 438.255 1113.66 438.862 1113.47 439.516C1113.29 440.169 1113.23 440.855 1113.31 441.532V461.089C1113.31 461.089 1113.22 463.697 1115.17 463.697C1117.51 463.998 1119.87 463.998 1122.21 463.697C1122.21 463.697 1123.77 463.393 1123.77 460.987V441.729C1123.89 441.058 1123.86 440.367 1123.7 439.706C1123.53 439.045 1123.23 438.429 1122.81 437.9C1122.31 437.241 1121.98 436.46 1121.87 435.632L1120.32 423.878C1120.3 423.746 1120.23 423.626 1120.13 423.542C1120.03 423.457 1119.9 423.417 1119.77 423.426Z" fill="white"/>
        <path d="M1118.68 464.252C1117.5 464.253 1116.32 464.177 1115.15 464.027C1114.89 464.033 1114.63 463.984 1114.38 463.882C1114.14 463.78 1113.92 463.628 1113.74 463.436C1112.94 462.588 1112.99 461.138 1112.99 461.077V441.552C1112.91 440.834 1112.97 440.105 1113.17 439.413C1113.37 438.72 1113.7 438.076 1114.16 437.52C1114.63 436.91 1114.94 436.18 1115.05 435.405L1116.55 423.894C1116.57 423.672 1116.69 423.471 1116.86 423.334C1117.03 423.196 1117.24 423.131 1117.46 423.154C1118.22 423.196 1118.98 423.176 1119.74 423.098L1119.75 423.096C1119.96 423.081 1120.17 423.149 1120.33 423.285C1120.5 423.422 1120.61 423.618 1120.63 423.834L1122.19 435.589C1122.29 436.357 1122.59 437.084 1123.06 437.698C1123.51 438.258 1123.83 438.911 1124.01 439.612C1124.19 440.314 1124.22 441.046 1124.09 441.759V460.987C1124.09 463.636 1122.28 464.018 1122.27 464.022C1121.08 464.175 1119.88 464.252 1118.68 464.252ZM1117.38 423.811C1117.33 423.808 1117.29 423.824 1117.25 423.855C1117.21 423.887 1117.19 423.931 1117.18 423.979L1115.69 435.495C1115.56 436.39 1115.21 437.235 1114.65 437.94C1114.26 438.428 1113.96 438.996 1113.78 439.606C1113.61 440.218 1113.56 440.858 1113.63 441.491L1113.63 441.531V461.089C1113.63 461.114 1113.6 462.336 1114.2 462.979C1114.33 463.11 1114.48 463.211 1114.65 463.278C1114.81 463.346 1114.99 463.376 1115.17 463.367L1115.21 463.369C1117.52 463.667 1119.86 463.667 1122.17 463.369C1122.2 463.362 1123.45 463.069 1123.45 460.987L1123.45 441.67C1123.57 441.046 1123.54 440.403 1123.39 439.788C1123.23 439.174 1122.95 438.601 1122.56 438.109C1122.02 437.404 1121.67 436.566 1121.55 435.679L1120 423.923C1119.99 423.874 1119.97 423.831 1119.93 423.799C1119.89 423.768 1119.85 423.752 1119.8 423.755C1119 423.837 1118.21 423.855 1117.41 423.811C1117.4 423.811 1117.39 423.811 1117.38 423.811Z" fill="#3F3D56"/>
        <path d="M1117.41 441.881H1119.78C1120.72 441.881 1121.63 442.265 1122.29 442.95C1122.96 443.634 1123.34 444.562 1123.34 445.529V454.682C1123.34 455.649 1122.96 456.577 1122.29 457.261C1121.63 457.946 1120.72 458.33 1119.78 458.33H1117.41C1116.47 458.33 1115.56 457.946 1114.9 457.261C1114.23 456.577 1113.86 455.649 1113.86 454.682V445.529C1113.86 444.562 1114.23 443.634 1114.9 442.95C1115.56 442.265 1116.47 441.881 1117.41 441.881Z" fill="#A98400"/>
        <path d="M1106.14 406.635C1105.36 406.716 1104.57 406.735 1103.79 406.691C1103.66 406.676 1103.52 406.716 1103.42 406.801C1103.31 406.886 1103.24 407.011 1103.23 407.147L1101.73 418.66C1101.62 419.496 1101.28 420.285 1100.77 420.941C1100.34 421.464 1100.02 422.071 1099.84 422.725C1099.65 423.378 1099.59 424.064 1099.68 424.741V444.298C1099.68 444.298 1099.58 446.906 1101.53 446.906C1103.87 447.208 1106.23 447.208 1108.57 446.906C1108.57 446.906 1110.13 446.602 1110.13 444.196V424.939C1110.25 424.267 1110.23 423.576 1110.06 422.915C1109.9 422.254 1109.59 421.638 1109.17 421.11C1108.67 420.451 1108.35 419.669 1108.23 418.842L1106.68 407.087C1106.66 406.955 1106.6 406.835 1106.49 406.751C1106.39 406.667 1106.27 406.626 1106.14 406.635Z" fill="white"/>
        <path d="M1105.05 447.462C1103.86 447.462 1102.68 447.387 1101.51 447.236C1101.25 447.242 1100.99 447.193 1100.75 447.092C1100.5 446.989 1100.29 446.837 1100.1 446.645C1099.31 445.797 1099.35 444.347 1099.36 444.286V424.761C1099.27 424.043 1099.33 423.315 1099.53 422.622C1099.73 421.929 1100.07 421.285 1100.52 420.729C1101 420.12 1101.31 419.389 1101.41 418.614L1102.91 407.104C1102.94 406.882 1103.05 406.681 1103.22 406.543C1103.39 406.405 1103.61 406.34 1103.83 406.363C1104.59 406.405 1105.35 406.385 1106.1 406.307L1106.11 406.306C1106.32 406.29 1106.53 406.358 1106.7 406.494C1106.86 406.631 1106.97 406.827 1107 407.043L1108.55 418.798C1108.66 419.567 1108.96 420.294 1109.42 420.907C1109.87 421.467 1110.19 422.121 1110.37 422.821C1110.55 423.523 1110.58 424.255 1110.46 424.968V444.196C1110.46 446.845 1108.65 447.227 1108.63 447.231C1107.44 447.384 1106.24 447.461 1105.05 447.462ZM1103.75 407.02C1103.7 407.017 1103.65 407.033 1103.62 407.064C1103.58 407.096 1103.55 407.14 1103.55 407.189L1102.05 418.704C1101.93 419.6 1101.57 420.444 1101.02 421.149C1100.62 421.637 1100.32 422.205 1100.15 422.815C1099.97 423.427 1099.92 424.068 1100 424.7L1100 424.741V444.298C1100 444.323 1099.96 445.546 1100.57 446.188C1100.69 446.319 1100.84 446.421 1101.01 446.488C1101.18 446.555 1101.35 446.585 1101.53 446.576L1101.57 446.579C1103.88 446.876 1106.22 446.876 1108.53 446.579C1108.56 446.571 1109.81 446.278 1109.81 444.196L1109.82 424.879C1109.93 424.255 1109.91 423.613 1109.75 422.997C1109.6 422.383 1109.31 421.81 1108.92 421.318C1108.38 420.613 1108.04 419.775 1107.91 418.888L1106.36 407.132C1106.35 407.084 1106.33 407.04 1106.29 407.008C1106.26 406.978 1106.21 406.962 1106.16 406.965C1105.37 407.046 1104.57 407.064 1103.77 407.021C1103.76 407.02 1103.76 407.02 1103.75 407.02Z" fill="#3F3D56"/>
        <path d="M1103.77 425.09H1106.15C1107.09 425.09 1107.99 425.475 1108.66 426.159C1109.33 426.843 1109.7 427.771 1109.7 428.738V437.891C1109.7 438.859 1109.33 439.787 1108.66 440.47C1107.99 441.155 1107.09 441.539 1106.15 441.539H1103.77C1102.83 441.539 1101.93 441.155 1101.26 440.47C1100.59 439.787 1100.22 438.859 1100.22 437.891V428.738C1100.22 427.771 1100.59 426.843 1101.26 426.159C1101.93 425.475 1102.83 425.09 1103.77 425.09Z" fill="#A93D00"/>
        <path d="M980.538 350.115C986.814 350.115 991.901 344.895 991.901 338.455C991.901 332.015 986.814 326.795 980.538 326.795C974.263 326.795 969.175 332.015 969.175 338.455C969.175 344.895 974.263 350.115 980.538 350.115Z" fill="#9DBE3B"/>
        <path d="M1242.34 340.321C1248.62 340.321 1253.7 335.1 1253.7 328.66C1253.7 322.22 1248.62 317 1242.34 317C1236.07 317 1230.98 322.22 1230.98 328.66C1230.98 335.1 1236.07 340.321 1242.34 340.321Z" fill="#9DBE3B"/>
        <path d="M1112.35 369.704C1116.87 369.704 1120.53 365.946 1120.53 361.309C1120.53 356.672 1116.87 352.914 1112.35 352.914C1107.83 352.914 1104.17 356.672 1104.17 361.309C1104.17 365.946 1107.83 369.704 1112.35 369.704Z" fill="#005AA9"/>
      </g>
    </g>
    <g clip-path="url(#clip2_0_1)">
      <mask id="mask2_0_1" style="mask-type:luminance" maskUnits="userSpaceOnUse" x="1172" y="78" width="247" height="251">
        <path d="M1414.4 78.5832L1172.18 83.9654L1176.34 328.854L1418.56 323.471L1414.4 78.5832Z" fill="white"/>
      </mask>
      <g mask="url(#mask2_0_1)">
        <path d="M1405.6 307.059C1405.75 316.279 1354.5 324.895 1291.11 326.303C1227.72 327.712 1176.21 321.379 1176.05 312.159C1175.94 305.633 1201.6 299.405 1239.1 295.829C1254.56 294.35 1272.03 293.326 1290.54 292.915C1298.15 292.746 1305.59 292.688 1312.78 292.733C1365.55 293.07 1405.46 298.945 1405.6 307.059Z" fill="#3F3D56"/>
        <path opacity="0.1" d="M1276.07 313.349C1300.41 312.808 1320.09 310.039 1320.04 307.165C1319.99 304.29 1300.23 302.397 1275.9 302.938C1251.57 303.478 1231.88 306.248 1231.93 309.123C1231.98 311.998 1251.74 313.889 1276.07 313.349Z" fill="black"/>
        <path d="M1275.87 311.917C1298.87 311.406 1317.19 291.703 1316.78 267.909C1316.38 244.117 1297.41 225.242 1274.4 225.754C1251.4 226.265 1233.08 245.967 1233.48 269.761C1233.89 293.554 1252.86 312.428 1275.87 311.917Z" fill="#3F3D56"/>
        <path d="M1288.71 294.033L1262.79 294.61L1263.18 317.586L1289.1 317.01L1288.71 294.033Z" fill="#005AA9"/>
        <path d="M1322.68 298.845L1321.33 306.777L1330.98 307.999L1337.22 304.269L1336.75 298.532L1322.68 298.845Z" fill="#575A89"/>
        <path d="M1271.66 151.65C1271.66 151.65 1271.06 159.924 1269.22 160.324C1267.37 160.725 1273.54 174.953 1273.54 174.953L1282.42 174.756L1289.43 172.804L1285.96 164.98C1285.96 164.98 1281.42 159.334 1284.67 154.593C1287.93 149.852 1271.66 151.65 1271.66 151.65Z" fill="#A0616A"/>
        <path opacity="0.1" d="M1271.66 151.65C1271.66 151.65 1271.06 159.924 1269.22 160.324C1267.37 160.725 1273.54 174.953 1273.54 174.953L1282.42 174.756L1289.43 172.804L1285.96 164.98C1285.96 164.98 1281.42 159.334 1284.67 154.593C1287.93 149.852 1271.66 151.65 1271.66 151.65Z" fill="black"/>
        <path d="M1254.22 215.248C1254.22 215.248 1244.9 233.413 1252.74 236.83C1260.57 240.247 1262.42 239.847 1262.44 240.924C1262.46 242.002 1260.97 241.675 1261.74 243.454C1262.51 245.232 1260.41 252.462 1262.71 256.721C1265 260.98 1264.31 264.227 1264.31 264.227C1264.31 264.227 1264.32 264.587 1265.09 266.006C1265.85 267.425 1266.24 268.494 1265.88 269.221C1265.52 269.947 1263.38 274.663 1265.62 275.691C1267.86 276.719 1279.35 277.182 1280.43 275.362C1281.51 273.543 1279.27 272.515 1280.36 271.412C1281.45 270.311 1282.19 269.936 1281.44 269.234C1280.68 268.532 1279.79 259.574 1279.79 259.574C1279.79 259.574 1281.47 249.121 1280.7 247.701C1279.94 246.282 1278.8 244.87 1279.52 243.777C1280.24 242.684 1280.99 243.026 1281.34 241.581C1281.68 240.138 1282.37 236.89 1282.37 236.89L1286.43 236.441L1296.09 238.021C1296.09 238.021 1307.02 249.271 1318.93 252.598C1318.93 252.598 1322.32 255.756 1323.43 255.731C1324.54 255.706 1324.54 255.706 1324.18 256.432C1323.82 257.158 1322.71 257.183 1323.47 257.885C1324.22 258.586 1325.31 257.485 1324.59 258.578C1323.87 259.672 1323.13 259.688 1323.88 260.39C1324.63 261.091 1323.59 265.065 1323.59 265.424C1323.6 265.783 1320.84 299.604 1321.96 300.298C1323.09 300.991 1338.67 302.799 1339.74 299.903C1340.8 297.006 1338.89 293.457 1338.89 293.457C1338.89 293.457 1343.71 250.252 1342.18 247.413C1340.65 244.573 1335.24 231.764 1307.34 224.124C1307.34 224.124 1299.54 222.86 1299.52 221.784C1299.5 220.706 1298.65 213.902 1297.16 213.576C1295.67 213.249 1287.15 213.08 1287.15 213.08L1276.47 216.55L1261.62 214.365L1254.22 215.248Z" fill="#2F2E41"/>
        <path d="M1268.21 275.274L1266.46 281.778C1266.46 281.778 1265.16 292.222 1267.05 294.694C1268.54 296.636 1271.18 298.995 1276 299.312C1277.35 299.402 1278.7 299.042 1279.82 298.291C1280.93 297.54 1281.75 296.444 1282.14 295.183C1282.2 295.032 1282.23 294.874 1282.24 294.716C1282.23 293.997 1280.97 285.406 1280.97 285.406L1278.97 276.472L1278.55 273.967L1268.21 275.274Z" fill="#2F2E41"/>
        <path d="M1322.78 304.948C1322.78 304.948 1320.9 303.195 1320.56 304.998C1320.22 306.801 1318.87 314.373 1321.47 314.674C1324.07 314.976 1348.93 318.015 1351.5 316.521C1354.07 315.028 1358.84 312.766 1355.86 311.755C1352.88 310.744 1344.31 307.703 1344.31 307.703C1344.31 307.703 1339.4 301.706 1338.65 301.364C1337.9 301.021 1333.84 301.829 1332.02 303.307C1330.19 304.784 1322.78 304.948 1322.78 304.948Z" fill="#2F2E41"/>
        <path d="M1280.68 158.992C1287.01 158.851 1292.07 153.754 1291.96 147.607C1291.86 141.461 1286.64 136.592 1280.3 136.733C1273.96 136.874 1268.9 141.971 1269.01 148.118C1269.11 154.264 1274.34 159.133 1280.68 158.992Z" fill="#A0616A"/>
        <path d="M1279.8 173.018L1275.28 168.45L1270.2 159.225C1270.2 159.225 1266.59 158.227 1265.88 160.039C1265.17 161.851 1251.94 167.891 1251.94 167.891C1251.94 167.891 1255.78 197.975 1254.35 200.879C1252.92 203.784 1250.52 215.33 1252.76 216.358C1255 217.386 1265.35 216.078 1268.71 217.44C1272.06 218.802 1281.69 218.588 1284.25 216.736C1286.81 214.883 1287.53 213.431 1290.14 214.45C1292.36 215.318 1296.98 183.856 1298.31 174.481C1298.42 173.694 1298.3 172.893 1297.97 172.17C1297.64 171.448 1297.1 170.83 1296.42 170.389C1293.06 168.204 1287.01 164.443 1285.96 164.98C1284.49 165.731 1279.8 173.018 1279.8 173.018Z" fill="#575A89"/>
        <path d="M1295.7 171.228C1296.57 171.42 1297.36 171.866 1297.96 172.507C1298.56 173.149 1298.95 173.954 1299.06 174.816L1302.5 200.887C1302.5 200.887 1295.36 216.489 1291.48 206.16C1287.6 195.831 1295.7 171.228 1295.7 171.228Z" fill="#575A89"/>
        <path d="M1295.51 203.556L1303.62 201.221C1303.62 201.221 1305.27 211.241 1306.75 211.208C1308.23 211.175 1301.66 217.067 1298.32 216.423C1294.97 215.779 1290.12 213.373 1289.72 211.586C1289.32 209.799 1292.89 202.177 1292.89 202.177L1295.51 203.556Z" fill="#575A89"/>
        <path d="M1271.9 152.856C1272.66 151.17 1272.49 149.227 1273.1 147.49C1273.43 146.561 1273.98 145.716 1274.7 145.022C1275.42 144.329 1276.3 143.805 1277.26 143.493C1278.22 143.179 1279.24 143.086 1280.24 143.22C1281.24 143.352 1282.2 143.708 1283.03 144.259C1283.87 144.815 1284.72 145.603 1285.73 145.471C1286.82 145.328 1287.77 144.127 1288.78 144.537C1289.9 144.992 1289.63 146.931 1290.77 147.351C1291.36 147.573 1292.06 147.196 1292.39 146.663C1292.68 146.105 1292.83 145.49 1292.84 144.866C1292.97 143.331 1293.08 141.708 1292.37 140.336C1292.07 139.872 1291.82 139.386 1291.59 138.884C1291.47 138.413 1291.41 137.926 1291.43 137.439C1291.39 135.639 1291.22 133.764 1290.26 132.23C1289.2 130.527 1287.26 129.466 1285.26 129.029C1283.25 128.592 1281.16 128.712 1279.11 128.926C1275.72 129.28 1272.19 129.956 1269.55 132.06C1269.19 132.326 1268.89 132.651 1268.65 133.021C1268.42 133.46 1268.26 133.928 1268.18 134.411C1267.64 136.706 1266.81 138.929 1265.71 141.03C1265.18 141.923 1264.75 142.867 1264.42 143.848C1264.16 144.843 1264.2 145.97 1264.8 146.807C1265.3 147.487 1266.08 147.839 1266.69 148.392C1267.3 148.939 1267.6 150.011 1268.28 150.42C1268.86 150.778 1269.56 150.501 1270.16 150.88C1270.93 151.368 1271 152.472 1271.9 152.856Z" fill="#2F2E41"/>
        <path d="M1281.75 178.362L1282.82 176.183C1282.82 176.183 1299.19 180.489 1302.59 184.723C1302.59 184.723 1310.65 179.515 1315.11 180.135L1319.56 180.754L1306.07 192.906L1288.64 191.857L1281.75 178.362Z"/>
        <path d="M1280.97 176.225L1266.14 197.026L1288.16 206.952C1288.16 206.952 1290.22 207.983 1291.77 206.872L1306.19 200.087L1319.56 180.754L1305.98 187.88C1305.98 187.88 1304.45 185.041 1301.51 186.542L1280.97 176.225Z" fill="#005AA9"/>
        <path d="M1304.91 211.967L1307.74 204.362C1307.74 204.362 1314.27 195.956 1310.5 192.089C1306.73 188.222 1302.92 203.751 1302.92 203.751L1304.91 211.967Z" fill="#A0616A"/>
        <path d="M1270.71 211.523L1277.09 206.298C1277.09 206.298 1287.06 202.175 1285.81 196.983C1284.57 191.791 1273.25 203.42 1273.25 203.42L1270.71 211.523Z" fill="#A0616A"/>
        <path opacity="0.1" d="M1254.1 175.565L1253.73 175.573C1253.73 175.573 1247.88 169.059 1246.93 178.059C1245.97 187.059 1242.77 216.939 1252.41 217.802C1262.06 218.665 1268.81 212.949 1268.81 212.949C1268.81 212.949 1275.67 202.381 1273.08 202.438C1271.83 202.466 1268.41 201.996 1265.3 202.252C1261.98 202.526 1259.02 203.498 1259.19 202.567C1259.53 200.764 1264.51 177.847 1254.1 175.565Z" fill="black"/>
        <path d="M1253.43 168.576L1251.94 167.891C1251.94 167.891 1246.03 169.099 1245.07 178.099C1244.12 187.1 1240.92 216.98 1250.56 217.843C1260.21 218.706 1273.12 215.906 1273.12 215.906C1273.12 215.906 1275.48 202.206 1272.89 202.263C1270.3 202.321 1257 204.412 1257.34 202.608C1257.68 200.805 1263.84 170.859 1253.43 168.576Z" fill="#575A89"/>
        <path d="M1299.47 207.957L1303.45 201.799L1306.2 211.758L1299.59 214.779L1299.47 207.957Z" fill="#575A89"/>
        <path d="M1214.13 123.299C1219.65 123.176 1224.06 118.737 1223.96 113.383C1223.87 108.03 1219.32 103.789 1213.8 103.912C1208.28 104.035 1203.88 108.474 1203.97 113.827C1204.06 119.181 1208.61 123.421 1214.13 123.299Z" fill="#9DBE3B"/>
        <path d="M1227.04 185.504L1203.35 186.03L1203.74 209.007L1227.43 208.48L1227.04 185.504Z" fill="#005AA9"/>
        <path d="M1309.9 80.905L1316.07 90.8445L1322.24 100.784L1310.25 101.051L1298.25 101.317L1304.08 91.1113L1309.9 80.905Z" fill="#005AA9"/>
        <path d="M1415.42 138.98C1415.35 143.281 1414.33 146.749 1412.36 149.385C1410.39 152.022 1408.02 153.371 1405.24 153.433C1402.99 153.483 1400.98 152.259 1399.24 149.76C1397.5 147.262 1396.58 143.379 1396.49 138.111C1396.47 136.947 1396.48 135.837 1396.52 134.782C1396.56 133.727 1396.61 132.728 1396.68 131.784L1397.95 118.069L1388.04 118.289C1386.62 135.626 1385.39 145.949 1384.35 149.259C1383.3 152.569 1381.46 154.253 1378.83 154.311C1377.64 154.309 1376.5 153.874 1375.64 153.093C1375.14 152.679 1374.74 152.161 1374.47 151.577C1374.2 150.992 1374.06 150.357 1374.08 149.716C1374.06 148.441 1375.06 146.637 1377.1 144.304C1379.13 141.971 1380.25 139.858 1380.44 137.968L1382.68 118.408L1378.52 118.5C1377.35 118.533 1376.2 118.837 1375.17 119.386C1374.22 119.833 1373.4 120.502 1372.78 121.332L1370.98 124.034L1369.48 124.068C1370.81 119.823 1372.48 116.617 1374.49 114.451C1376.5 112.284 1378.83 111.172 1381.49 111.113L1414.25 110.385L1414.38 117.704L1403.31 117.95C1403.02 121.284 1402.82 124.617 1402.69 127.947C1402.56 131.278 1402.52 134.621 1402.58 137.976C1402.62 140.249 1403.19 142.081 1404.3 143.47C1405.41 144.86 1406.78 145.537 1408.41 145.501C1409.41 145.478 1410.46 145.059 1411.54 144.245C1412.06 143.878 1412.49 143.407 1412.8 142.865C1413.12 142.323 1413.31 141.723 1413.36 141.106C1413.43 140.494 1413.49 140.014 1413.53 139.667C1413.56 139.319 1413.58 139.104 1413.58 139.021L1415.42 138.98Z" fill="#9DBE3B"/>
        <path opacity="0.1" d="M1415.42 138.98C1415.35 143.281 1414.33 146.749 1412.36 149.385C1410.39 152.022 1408.02 153.371 1405.24 153.433C1402.99 153.483 1400.98 152.259 1399.24 149.76C1397.5 147.262 1396.58 143.379 1396.49 138.111C1396.47 136.947 1396.48 135.837 1396.52 134.782C1396.56 133.727 1396.61 132.728 1396.68 131.784L1397.95 118.069L1388.04 118.289C1386.62 135.626 1385.39 145.949 1384.35 149.259C1383.3 152.569 1381.46 154.253 1378.83 154.311C1377.64 154.309 1376.5 153.874 1375.64 153.093C1375.14 152.679 1374.74 152.161 1374.47 151.577C1374.2 150.992 1374.06 150.357 1374.08 149.716C1374.06 148.441 1375.06 146.637 1377.1 144.304C1379.13 141.971 1380.25 139.858 1380.44 137.968L1382.68 118.408L1378.52 118.5C1377.35 118.533 1376.2 118.837 1375.17 119.386C1374.22 119.833 1373.4 120.502 1372.78 121.332L1370.98 124.034L1369.48 124.068C1370.81 119.823 1372.48 116.617 1374.49 114.451C1376.5 112.284 1378.83 111.172 1381.49 111.113L1414.25 110.385L1414.38 117.704L1403.31 117.95C1403.02 121.284 1402.82 124.617 1402.69 127.947C1402.56 131.278 1402.52 134.621 1402.58 137.976C1402.62 140.249 1403.19 142.081 1404.3 143.47C1405.41 144.86 1406.78 145.537 1408.41 145.501C1409.41 145.478 1410.46 145.059 1411.54 144.245C1412.06 143.878 1412.49 143.407 1412.8 142.865C1413.12 142.323 1413.31 141.723 1413.36 141.106C1413.43 140.494 1413.49 140.014 1413.53 139.667C1413.56 139.319 1413.58 139.104 1413.58 139.021L1415.42 138.98Z" fill="black"/>
        <path d="M1415.4 137.681C1415.33 141.981 1414.31 145.45 1412.34 148.086C1410.37 150.723 1408 152.072 1405.22 152.134C1402.96 152.184 1400.96 150.96 1399.22 148.461C1397.47 145.962 1396.56 142.079 1396.47 136.812C1396.45 135.647 1396.46 134.538 1396.5 133.483C1396.54 132.428 1396.59 131.429 1396.66 130.484L1397.93 116.77L1388.02 116.989C1386.6 134.326 1385.37 144.65 1384.32 147.96C1383.28 151.269 1381.44 152.953 1378.81 153.012C1377.62 153.01 1376.48 152.575 1375.62 151.794C1375.11 151.379 1374.71 150.862 1374.44 150.277C1374.17 149.693 1374.04 149.058 1374.06 148.417C1374.03 147.142 1375.04 145.338 1377.07 143.004C1379.11 140.67 1380.22 138.559 1380.42 136.669L1382.66 117.108L1378.5 117.201C1377.33 117.234 1376.18 117.538 1375.15 118.087C1374.2 118.534 1373.38 119.203 1372.76 120.033L1370.96 122.735L1369.46 122.768C1370.79 118.523 1372.46 115.318 1374.47 113.152C1376.47 110.985 1378.81 109.873 1381.47 109.814L1414.23 109.085L1414.35 116.404L1403.29 116.65C1403 119.985 1402.79 123.317 1402.67 126.648C1402.54 129.979 1402.5 133.322 1402.56 136.676C1402.6 138.95 1403.17 140.781 1404.28 142.171C1405.39 143.561 1406.76 144.237 1408.39 144.201C1409.39 144.179 1410.43 143.76 1411.52 142.946C1412.04 142.579 1412.47 142.108 1412.78 141.566C1413.09 141.024 1413.28 140.424 1413.34 139.806C1413.41 139.195 1413.47 138.715 1413.5 138.368C1413.54 138.02 1413.56 137.805 1413.56 137.721L1415.4 137.681Z" fill="#9DBE3B"/>
      </g>
    </g>
  </g>
</svg>