<svg id="visual" viewBox="0 0 960 300" width="960" height="300" xmlns="http://www.w3.org/2000/svg" xmlns:xlink="http://www.w3.org/1999/xlink" version="1.1"><path d="M0 183L26.7 187C53.3 191 106.7 199 160 209.3C213.3 219.7 266.7 232.3 320 239C373.3 245.7 426.7 246.3 480 237.8C533.3 229.3 586.7 211.7 640 201.3C693.3 191 746.7 188 800 191.2C853.3 194.3 906.7 203.7 933.3 208.3L960 213L960 301L933.3 301C906.7 301 853.3 301 800 301C746.7 301 693.3 301 640 301C586.7 301 533.3 301 480 301C426.7 301 373.3 301 320 301C266.7 301 213.3 301 160 301C106.7 301 53.3 301 26.7 301L0 301Z" fill="#005aa9"></path><path d="M0 254L26.7 249.8C53.3 245.7 106.7 237.3 160 236.7C213.3 236 266.7 243 320 241C373.3 239 426.7 228 480 222.2C533.3 216.3 586.7 215.7 640 221.8C693.3 228 746.7 241 800 240.2C853.3 239.3 906.7 224.7 933.3 217.3L960 210L960 301L933.3 301C906.7 301 853.3 301 800 301C746.7 301 693.3 301 640 301C586.7 301 533.3 301 480 301C426.7 301 373.3 301 320 301C266.7 301 213.3 301 160 301C106.7 301 53.3 301 26.7 301L0 301Z" fill="#2776c6"></path><path d="M0 266L26.7 263.8C53.3 261.7 106.7 257.3 160 253.5C213.3 249.7 266.7 246.3 320 249.2C373.3 252 426.7 261 480 265.2C533.3 269.3 586.7 268.7 640 264.3C693.3 260 746.7 252 800 246.3C853.3 240.7 906.7 237.3 933.3 235.7L960 234L960 301L933.3 301C906.7 301 853.3 301 800 301C746.7 301 693.3 301 640 301C586.7 301 533.3 301 480 301C426.7 301 373.3 301 320 301C266.7 301 213.3 301 160 301C106.7 301 53.3 301 26.7 301L0 301Z" fill="#4294e2"></path><path d="M0 269L26.7 270.2C53.3 271.3 106.7 273.7 160 274.3C213.3 275 266.7 274 320 273.2C373.3 272.3 426.7 271.7 480 269.5C533.3 267.3 586.7 263.7 640 263.2C693.3 262.7 746.7 265.3 800 266C853.3 266.7 906.7 265.3 933.3 264.7L960 264L960 301L933.3 301C906.7 301 853.3 301 800 301C746.7 301 693.3 301 640 301C586.7 301 533.3 301 480 301C426.7 301 373.3 301 320 301C266.7 301 213.3 301 160 301C106.7 301 53.3 301 26.7 301L0 301Z" fill="#5bb2ff"></path></svg>